<?xml version="1.0" encoding="utf-8" standalone="no"?>
<!DOCTYPE svg PUBLIC "-//W3C//DTD SVG 1.1//EN"
  "http://www.w3.org/Graphics/SVG/1.1/DTD/svg11.dtd">
<!-- Created with matplotlib (http://matplotlib.org/) -->
<svg height="1080pt" version="1.1" viewBox="0 0 1800 1080" width="1800pt" xmlns="http://www.w3.org/2000/svg" xmlns:xlink="http://www.w3.org/1999/xlink">
 <defs>
  <style type="text/css">
*{stroke-linecap:butt;stroke-linejoin:round;}
  </style>
 </defs>
 <g id="figure_1">
  <g id="patch_1">
   <path d="M 0 1080 
L 1800 1080 
L 1800 0 
L 0 0 
z
" style="fill:#ffffff;"/>
  </g>
  <g id="axes_1">
   <g id="patch_2">
    <path d="M 225 945 
L 1620 945 
L 1620 129.6 
L 225 129.6 
z
" style="fill:#ffffff;"/>
   </g>
   <g id="PolyCollection_1">
    <path clip-path="url(#p1c510ea40c)" d="M 288.409091 922.660013 
L 288.409091 882.212227 
L 301.219008 860.449571 
L 314.028926 861.407107 
L 326.838843 842.229804 
L 339.64876 800.818467 
L 352.458678 771.815427 
L 365.268595 780.311242 
L 378.078512 761.456619 
L 390.88843 716.925522 
L 403.698347 690.454398 
L 416.508264 702.865057 
L 429.318182 670.447205 
L 442.128099 619.122374 
L 454.938017 577.946843 
L 467.747934 597.203699 
L 480.557851 568.557713 
L 493.367769 516.380041 
L 506.177686 490.193799 
L 518.987603 518.571283 
L 531.797521 488.547756 
L 544.607438 425.933838 
L 557.417355 413.916447 
L 570.227273 452.271527 
L 583.03719 439.288992 
L 595.847107 375.93047 
L 608.657025 360.579792 
L 621.466942 399.589816 
L 634.27686 398.300071 
L 647.086777 367.308284 
L 659.896694 355.975827 
L 672.706612 396.199458 
L 685.516529 407.064848 
L 698.326446 401.458498 
L 711.136364 410.918847 
L 723.946281 450.001252 
L 736.756198 471.412319 
L 749.566116 485.970166 
L 762.376033 503.337762 
L 775.18595 541.679305 
L 787.995868 568.490744 
L 800.805785 558.845989 
L 813.615702 576.994514 
L 826.42562 597.334784 
L 839.235537 615.424409 
L 852.045455 595.67127 
L 864.855372 609.171532 
L 877.665289 631.27972 
L 890.475207 641.114854 
L 903.285124 642.770135 
L 916.095041 644.880688 
L 928.904959 658.003675 
L 941.714876 664.961157 
L 954.524793 646.726776 
L 967.334711 639.028495 
L 980.144628 642.645104 
L 992.954545 636.67988 
L 1005.764463 619.167788 
L 1018.57438 613.058847 
L 1031.384298 627.13846 
L 1044.194215 608.542201 
L 1057.004132 574.413616 
L 1069.81405 568.236856 
L 1082.623967 589.047619 
L 1095.433884 598.54501 
L 1108.243802 588.38826 
L 1121.053719 583.864698 
L 1133.863636 615.371627 
L 1146.673554 633.285882 
L 1159.483471 637.043734 
L 1172.293388 623.029595 
L 1185.103306 643.708383 
L 1197.913223 653.556214 
L 1210.72314 650.738871 
L 1223.533058 636.23064 
L 1236.342975 649.922151 
L 1249.152893 669.545561 
L 1261.96281 661.306872 
L 1274.772727 652.427636 
L 1287.582645 658.969621 
L 1300.392562 674.878536 
L 1313.202479 651.884861 
L 1326.012397 659.279093 
L 1338.822314 666.773402 
L 1351.632231 681.45696 
L 1364.442149 670.90533 
L 1377.252066 670.93996 
L 1390.061983 679.009958 
L 1402.871901 688.858809 
L 1415.681818 679.227064 
L 1428.491736 670.620691 
L 1441.301653 676.156582 
L 1454.11157 689.601961 
L 1466.921488 680.920947 
L 1479.731405 671.664345 
L 1492.541322 679.735475 
L 1505.35124 690.017189 
L 1518.161157 697.912925 
L 1530.971074 691.678984 
L 1543.780992 695.84528 
L 1556.590909 713.240152 
L 1556.590909 945 
L 1556.590909 945 
L 1543.780992 945 
L 1530.971074 945 
L 1518.161157 945 
L 1505.35124 945 
L 1492.541322 945 
L 1479.731405 945 
L 1466.921488 945 
L 1454.11157 945 
L 1441.301653 945 
L 1428.491736 945 
L 1415.681818 945 
L 1402.871901 945 
L 1390.061983 945 
L 1377.252066 945 
L 1364.442149 945 
L 1351.632231 945 
L 1338.822314 945 
L 1326.012397 945 
L 1313.202479 945 
L 1300.392562 945 
L 1287.582645 945 
L 1274.772727 945 
L 1261.96281 945 
L 1249.152893 945 
L 1236.342975 945 
L 1223.533058 945 
L 1210.72314 945 
L 1197.913223 945 
L 1185.103306 945 
L 1172.293388 945 
L 1159.483471 945 
L 1146.673554 945 
L 1133.863636 945 
L 1121.053719 945 
L 1108.243802 945 
L 1095.433884 945 
L 1082.623967 945 
L 1069.81405 945 
L 1057.004132 945 
L 1044.194215 945 
L 1031.384298 939.96314 
L 1018.57438 941.974833 
L 1005.764463 945 
L 992.954545 945 
L 980.144628 933.262816 
L 967.334711 927.094625 
L 954.524793 923.636424 
L 941.714876 922.362363 
L 928.904959 916.599605 
L 916.095041 914.393072 
L 903.285124 914.220505 
L 890.475207 919.789706 
L 877.665289 915.59996 
L 864.855372 915.855428 
L 852.045455 923.15865 
L 839.235537 922.648951 
L 826.42562 923.778256 
L 813.615702 917.047246 
L 800.805785 920.192411 
L 787.995868 914.787736 
L 775.18595 901.807655 
L 762.376033 886.985118 
L 749.566116 876.629114 
L 736.756198 867.051121 
L 723.946281 848.344508 
L 711.136364 833.936673 
L 698.326446 819.261182 
L 685.516529 821.482672 
L 672.706612 817.018542 
L 659.896694 803.751933 
L 647.086777 801.551956 
L 634.27686 798.936089 
L 621.466942 806.126504 
L 608.657025 796.864848 
L 595.847107 799.12681 
L 583.03719 806.545008 
L 570.227273 813.784393 
L 557.417355 808.434033 
L 544.607438 816.964722 
L 531.797521 834.912324 
L 518.987603 857.726717 
L 506.177686 851.531241 
L 493.367769 857.308679 
L 480.557851 871.015327 
L 467.747934 880.856221 
L 454.938017 874.346437 
L 442.128099 874.267066 
L 429.318182 882.629515 
L 416.508264 889.677023 
L 403.698347 887.410482 
L 390.88843 895.838478 
L 378.078512 898.274421 
L 365.268595 900.946358 
L 352.458678 896.721933 
L 339.64876 902.618013 
L 326.838843 902.955156 
L 314.028926 910.849133 
L 301.219008 910.175869 
L 288.409091 922.660013 
z
" style="fill:#ff0000;fill-opacity:0.3;"/>
   </g>
   <g id="PolyCollection_2">
    <path clip-path="url(#p1c510ea40c)" d="M 288.409091 932.952439 
L 288.409091 917.256041 
L 301.219008 903.256897 
L 314.028926 893.365767 
L 326.838843 885.259218 
L 339.64876 871.605802 
L 352.458678 854.879144 
L 365.268595 845.479697 
L 378.078512 839.243235 
L 390.88843 822.650679 
L 403.698347 807.9823 
L 416.508264 790.190187 
L 429.318182 776.624641 
L 442.128099 758.839777 
L 454.938017 744.141973 
L 467.747934 740.339199 
L 480.557851 740.650169 
L 493.367769 729.753264 
L 506.177686 705.305363 
L 518.987603 691.178926 
L 531.797521 682.550682 
L 544.607438 687.150364 
L 557.417355 682.145907 
L 570.227273 674.435874 
L 583.03719 666.399312 
L 595.847107 664.36213 
L 608.657025 669.404867 
L 621.466942 666.629369 
L 634.27686 655.559409 
L 647.086777 656.583429 
L 659.896694 649.750311 
L 672.706612 655.201589 
L 685.516529 656.424703 
L 698.326446 658.293937 
L 711.136364 664.149029 
L 723.946281 669.041881 
L 736.756198 670.160554 
L 749.566116 665.581757 
L 762.376033 669.247257 
L 775.18595 669.254598 
L 787.995868 660.003598 
L 800.805785 655.854046 
L 813.615702 649.85003 
L 826.42562 653.658152 
L 839.235537 645.039671 
L 852.045455 627.65267 
L 864.855372 616.979714 
L 877.665289 612.312822 
L 890.475207 610.126462 
L 903.285124 610.406325 
L 916.095041 611.530129 
L 928.904959 608.858496 
L 941.714876 615.902425 
L 954.524793 627.877336 
L 967.334711 650.309399 
L 980.144628 657.311032 
L 992.954545 663.955924 
L 1005.764463 668.604364 
L 1018.57438 674.163015 
L 1031.384298 671.572205 
L 1044.194215 661.586006 
L 1057.004132 656.512014 
L 1069.81405 647.903951 
L 1082.623967 638.162449 
L 1095.433884 642.140901 
L 1108.243802 645.797216 
L 1121.053719 631.534927 
L 1133.863636 630.157552 
L 1146.673554 635.948934 
L 1159.483471 629.289171 
L 1172.293388 636.200439 
L 1185.103306 635.041488 
L 1197.913223 635.722567 
L 1210.72314 634.449304 
L 1223.533058 628.751151 
L 1236.342975 627.883317 
L 1249.152893 615.164007 
L 1261.96281 606.604533 
L 1274.772727 590.699548 
L 1287.582645 564.251273 
L 1300.392562 553.985011 
L 1313.202479 555.514143 
L 1326.012397 571.521837 
L 1338.822314 573.882851 
L 1351.632231 569.119945 
L 1364.442149 576.223313 
L 1377.252066 588.06106 
L 1390.061983 576.626174 
L 1402.871901 570.243873 
L 1415.681818 574.071485 
L 1428.491736 566.760631 
L 1441.301653 551.844483 
L 1454.11157 550.763185 
L 1466.921488 553.38127 
L 1479.731405 557.666361 
L 1492.541322 559.76544 
L 1505.35124 574.927278 
L 1518.161157 581.495148 
L 1530.971074 589.194695 
L 1543.780992 597.105159 
L 1556.590909 609.835429 
L 1556.590909 857.135051 
L 1556.590909 857.135051 
L 1543.780992 857.797401 
L 1530.971074 863.750905 
L 1518.161157 865.579572 
L 1505.35124 872.799762 
L 1492.541322 879.48144 
L 1479.731405 881.580519 
L 1466.921488 882.27785 
L 1454.11157 885.222095 
L 1441.301653 889.033197 
L 1428.491736 882.597209 
L 1415.681818 876.590995 
L 1402.871901 880.744767 
L 1390.061983 889.365826 
L 1377.252066 886.73726 
L 1364.442149 892.051807 
L 1351.632231 894.915095 
L 1338.822314 894.392269 
L 1326.012397 899.688723 
L 1313.202479 916.674897 
L 1300.392562 916.899389 
L 1287.582645 905.654647 
L 1274.772727 886.381892 
L 1261.96281 886.458747 
L 1249.152893 888.336393 
L 1236.342975 888.663483 
L 1223.533058 885.838689 
L 1210.72314 887.968376 
L 1197.913223 890.282873 
L 1185.103306 889.333152 
L 1172.293388 891.435801 
L 1159.483471 894.106989 
L 1146.673554 898.862826 
L 1133.863636 902.044928 
L 1121.053719 902.624513 
L 1108.243802 902.387104 
L 1095.433884 902.129499 
L 1082.623967 908.717231 
L 1069.81405 902.563489 
L 1057.004132 905.371026 
L 1044.194215 904.537114 
L 1031.384298 905.640355 
L 1018.57438 907.289625 
L 1005.764463 908.282036 
L 992.954545 912.604316 
L 980.144628 912.399848 
L 967.334711 919.401481 
L 954.524793 930.417944 
L 941.714876 939.783575 
L 928.904959 940.304304 
L 916.095041 938.284991 
L 903.285124 938.756475 
L 890.475207 944.254898 
L 877.665289 945 
L 864.855372 945 
L 852.045455 945 
L 839.235537 945 
L 826.42562 944.102488 
L 813.615702 945 
L 800.805785 941.906594 
L 787.995868 936.778562 
L 775.18595 930.789162 
L 762.376033 931.122663 
L 749.566116 928.591123 
L 736.756198 924.664646 
L 723.946281 923.500199 
L 711.136364 924.152971 
L 698.326446 928.377263 
L 685.516529 934.486577 
L 672.706612 933.752731 
L 659.896694 934.637769 
L 647.086777 930.413931 
L 634.27686 930.459471 
L 621.466942 931.457431 
L 608.657025 933.574333 
L 595.847107 936.00779 
L 583.03719 940.167648 
L 570.227273 945 
L 557.417355 945 
L 544.607438 945 
L 531.797521 945 
L 518.987603 945 
L 506.177686 945 
L 493.367769 945 
L 480.557851 945 
L 467.747934 945 
L 454.938017 945 
L 442.128099 945 
L 429.318182 945 
L 416.508264 945 
L 403.698347 945 
L 390.88843 943.082361 
L 378.078512 936.600765 
L 365.268595 933.952063 
L 352.458678 933.685096 
L 339.64876 930.004838 
L 326.838843 930.050142 
L 314.028926 931.402233 
L 301.219008 932.926703 
L 288.409091 932.952439 
z
" style="fill:#0000ff;fill-opacity:0.3;"/>
   </g>
   <g id="matplotlib.axis_1">
    <g id="xtick_1">
     <g id="line2d_1">
      <defs>
       <path d="M 0 0 
L 0 3.5 
" id="mb6118ba8b1" style="stroke:#000000;stroke-width:0.8;"/>
      </defs>
      <g>
       <use style="stroke:#000000;stroke-width:0.8;" x="288.409091" xlink:href="#mb6118ba8b1" y="945"/>
      </g>
     </g>
     <g id="text_1">
      <!-- 0 -->
      <defs>
       <path d="M 31.78125 66.40625 
Q 24.171875 66.40625 20.328125 58.90625 
Q 16.5 51.421875 16.5 36.375 
Q 16.5 21.390625 20.328125 13.890625 
Q 24.171875 6.390625 31.78125 6.390625 
Q 39.453125 6.390625 43.28125 13.890625 
Q 47.125 21.390625 47.125 36.375 
Q 47.125 51.421875 43.28125 58.90625 
Q 39.453125 66.40625 31.78125 66.40625 
M 31.78125 74.21875 
Q 44.046875 74.21875 50.515625 64.515625 
Q 56.984375 54.828125 56.984375 36.375 
Q 56.984375 17.96875 50.515625 8.265625 
Q 44.046875 -1.421875 31.78125 -1.421875 
Q 19.53125 -1.421875 13.0625 8.265625 
Q 6.59375 17.96875 6.59375 36.375 
Q 6.59375 54.828125 13.0625 64.515625 
Q 19.53125 74.21875 31.78125 74.21875 
" id="DejaVuSans-30"/>
      </defs>
      <g transform="translate(285.227841 959.598438)scale(0.1 -0.1)">
       <use xlink:href="#DejaVuSans-30"/>
      </g>
     </g>
    </g>
    <g id="xtick_2">
     <g id="line2d_2">
      <g>
       <use style="stroke:#000000;stroke-width:0.8;" x="544.607438" xlink:href="#mb6118ba8b1" y="945"/>
      </g>
     </g>
     <g id="text_2">
      <!-- 20 -->
      <defs>
       <path d="M 19.1875 8.296875 
L 53.609375 8.296875 
L 53.609375 0 
L 7.328125 0 
L 7.328125 8.296875 
Q 12.9375 14.109375 22.625 23.890625 
Q 32.328125 33.6875 34.8125 36.53125 
Q 39.546875 41.84375 41.421875 45.53125 
Q 43.3125 49.21875 43.3125 52.78125 
Q 43.3125 58.59375 39.234375 62.25 
Q 35.15625 65.921875 28.609375 65.921875 
Q 23.96875 65.921875 18.8125 64.3125 
Q 13.671875 62.703125 7.8125 59.421875 
L 7.8125 69.390625 
Q 13.765625 71.78125 18.9375 73 
Q 24.125 74.21875 28.421875 74.21875 
Q 39.75 74.21875 46.484375 68.546875 
Q 53.21875 62.890625 53.21875 53.421875 
Q 53.21875 48.921875 51.53125 44.890625 
Q 49.859375 40.875 45.40625 35.40625 
Q 44.1875 33.984375 37.640625 27.21875 
Q 31.109375 20.453125 19.1875 8.296875 
" id="DejaVuSans-32"/>
      </defs>
      <g transform="translate(538.244938 959.598438)scale(0.1 -0.1)">
       <use xlink:href="#DejaVuSans-32"/>
       <use x="63.623047" xlink:href="#DejaVuSans-30"/>
      </g>
     </g>
    </g>
    <g id="xtick_3">
     <g id="line2d_3">
      <g>
       <use style="stroke:#000000;stroke-width:0.8;" x="800.805785" xlink:href="#mb6118ba8b1" y="945"/>
      </g>
     </g>
     <g id="text_3">
      <!-- 40 -->
      <defs>
       <path d="M 37.796875 64.3125 
L 12.890625 25.390625 
L 37.796875 25.390625 
z
M 35.203125 72.90625 
L 47.609375 72.90625 
L 47.609375 25.390625 
L 58.015625 25.390625 
L 58.015625 17.1875 
L 47.609375 17.1875 
L 47.609375 0 
L 37.796875 0 
L 37.796875 17.1875 
L 4.890625 17.1875 
L 4.890625 26.703125 
z
" id="DejaVuSans-34"/>
      </defs>
      <g transform="translate(794.443285 959.598438)scale(0.1 -0.1)">
       <use xlink:href="#DejaVuSans-34"/>
       <use x="63.623047" xlink:href="#DejaVuSans-30"/>
      </g>
     </g>
    </g>
    <g id="xtick_4">
     <g id="line2d_4">
      <g>
       <use style="stroke:#000000;stroke-width:0.8;" x="1057.004132" xlink:href="#mb6118ba8b1" y="945"/>
      </g>
     </g>
     <g id="text_4">
      <!-- 60 -->
      <defs>
       <path d="M 33.015625 40.375 
Q 26.375 40.375 22.484375 35.828125 
Q 18.609375 31.296875 18.609375 23.390625 
Q 18.609375 15.53125 22.484375 10.953125 
Q 26.375 6.390625 33.015625 6.390625 
Q 39.65625 6.390625 43.53125 10.953125 
Q 47.40625 15.53125 47.40625 23.390625 
Q 47.40625 31.296875 43.53125 35.828125 
Q 39.65625 40.375 33.015625 40.375 
M 52.59375 71.296875 
L 52.59375 62.3125 
Q 48.875 64.0625 45.09375 64.984375 
Q 41.3125 65.921875 37.59375 65.921875 
Q 27.828125 65.921875 22.671875 59.328125 
Q 17.53125 52.734375 16.796875 39.40625 
Q 19.671875 43.65625 24.015625 45.921875 
Q 28.375 48.1875 33.59375 48.1875 
Q 44.578125 48.1875 50.953125 41.515625 
Q 57.328125 34.859375 57.328125 23.390625 
Q 57.328125 12.15625 50.6875 5.359375 
Q 44.046875 -1.421875 33.015625 -1.421875 
Q 20.359375 -1.421875 13.671875 8.265625 
Q 6.984375 17.96875 6.984375 36.375 
Q 6.984375 53.65625 15.1875 63.9375 
Q 23.390625 74.21875 37.203125 74.21875 
Q 40.921875 74.21875 44.703125 73.484375 
Q 48.484375 72.75 52.59375 71.296875 
" id="DejaVuSans-36"/>
      </defs>
      <g transform="translate(1050.641632 959.598438)scale(0.1 -0.1)">
       <use xlink:href="#DejaVuSans-36"/>
       <use x="63.623047" xlink:href="#DejaVuSans-30"/>
      </g>
     </g>
    </g>
    <g id="xtick_5">
     <g id="line2d_5">
      <g>
       <use style="stroke:#000000;stroke-width:0.8;" x="1313.202479" xlink:href="#mb6118ba8b1" y="945"/>
      </g>
     </g>
     <g id="text_5">
      <!-- 80 -->
      <defs>
       <path d="M 31.78125 34.625 
Q 24.75 34.625 20.71875 30.859375 
Q 16.703125 27.09375 16.703125 20.515625 
Q 16.703125 13.921875 20.71875 10.15625 
Q 24.75 6.390625 31.78125 6.390625 
Q 38.8125 6.390625 42.859375 10.171875 
Q 46.921875 13.96875 46.921875 20.515625 
Q 46.921875 27.09375 42.890625 30.859375 
Q 38.875 34.625 31.78125 34.625 
M 21.921875 38.8125 
Q 15.578125 40.375 12.03125 44.71875 
Q 8.5 49.078125 8.5 55.328125 
Q 8.5 64.0625 14.71875 69.140625 
Q 20.953125 74.21875 31.78125 74.21875 
Q 42.671875 74.21875 48.875 69.140625 
Q 55.078125 64.0625 55.078125 55.328125 
Q 55.078125 49.078125 51.53125 44.71875 
Q 48 40.375 41.703125 38.8125 
Q 48.828125 37.15625 52.796875 32.3125 
Q 56.78125 27.484375 56.78125 20.515625 
Q 56.78125 9.90625 50.3125 4.234375 
Q 43.84375 -1.421875 31.78125 -1.421875 
Q 19.734375 -1.421875 13.25 4.234375 
Q 6.78125 9.90625 6.78125 20.515625 
Q 6.78125 27.484375 10.78125 32.3125 
Q 14.796875 37.15625 21.921875 38.8125 
M 18.3125 54.390625 
Q 18.3125 48.734375 21.84375 45.5625 
Q 25.390625 42.390625 31.78125 42.390625 
Q 38.140625 42.390625 41.71875 45.5625 
Q 45.3125 48.734375 45.3125 54.390625 
Q 45.3125 60.0625 41.71875 63.234375 
Q 38.140625 66.40625 31.78125 66.40625 
Q 25.390625 66.40625 21.84375 63.234375 
Q 18.3125 60.0625 18.3125 54.390625 
" id="DejaVuSans-38"/>
      </defs>
      <g transform="translate(1306.839979 959.598438)scale(0.1 -0.1)">
       <use xlink:href="#DejaVuSans-38"/>
       <use x="63.623047" xlink:href="#DejaVuSans-30"/>
      </g>
     </g>
    </g>
    <g id="xtick_6">
     <g id="line2d_6">
      <g>
       <use style="stroke:#000000;stroke-width:0.8;" x="1569.400826" xlink:href="#mb6118ba8b1" y="945"/>
      </g>
     </g>
     <g id="text_6">
      <!-- 100 -->
      <defs>
       <path d="M 12.40625 8.296875 
L 28.515625 8.296875 
L 28.515625 63.921875 
L 10.984375 60.40625 
L 10.984375 69.390625 
L 28.421875 72.90625 
L 38.28125 72.90625 
L 38.28125 8.296875 
L 54.390625 8.296875 
L 54.390625 0 
L 12.40625 0 
z
" id="DejaVuSans-31"/>
      </defs>
      <g transform="translate(1559.857076 959.598438)scale(0.1 -0.1)">
       <use xlink:href="#DejaVuSans-31"/>
       <use x="63.623047" xlink:href="#DejaVuSans-30"/>
       <use x="127.246094" xlink:href="#DejaVuSans-30"/>
      </g>
     </g>
    </g>
    <g id="text_7">
     <!-- Timestep -->
     <defs>
      <path d="M -0.296875 72.90625 
L 61.375 72.90625 
L 61.375 64.59375 
L 35.5 64.59375 
L 35.5 0 
L 25.59375 0 
L 25.59375 64.59375 
L -0.296875 64.59375 
z
" id="DejaVuSans-54"/>
      <path d="M 9.421875 54.6875 
L 18.40625 54.6875 
L 18.40625 0 
L 9.421875 0 
z
M 9.421875 75.984375 
L 18.40625 75.984375 
L 18.40625 64.59375 
L 9.421875 64.59375 
z
" id="DejaVuSans-69"/>
      <path d="M 52 44.1875 
Q 55.375 50.25 60.0625 53.125 
Q 64.75 56 71.09375 56 
Q 79.640625 56 84.28125 50.015625 
Q 88.921875 44.046875 88.921875 33.015625 
L 88.921875 0 
L 79.890625 0 
L 79.890625 32.71875 
Q 79.890625 40.578125 77.09375 44.375 
Q 74.3125 48.1875 68.609375 48.1875 
Q 61.625 48.1875 57.5625 43.546875 
Q 53.515625 38.921875 53.515625 30.90625 
L 53.515625 0 
L 44.484375 0 
L 44.484375 32.71875 
Q 44.484375 40.625 41.703125 44.40625 
Q 38.921875 48.1875 33.109375 48.1875 
Q 26.21875 48.1875 22.15625 43.53125 
Q 18.109375 38.875 18.109375 30.90625 
L 18.109375 0 
L 9.078125 0 
L 9.078125 54.6875 
L 18.109375 54.6875 
L 18.109375 46.1875 
Q 21.1875 51.21875 25.484375 53.609375 
Q 29.78125 56 35.6875 56 
Q 41.65625 56 45.828125 52.96875 
Q 50 49.953125 52 44.1875 
" id="DejaVuSans-6d"/>
      <path d="M 56.203125 29.59375 
L 56.203125 25.203125 
L 14.890625 25.203125 
Q 15.484375 15.921875 20.484375 11.0625 
Q 25.484375 6.203125 34.421875 6.203125 
Q 39.59375 6.203125 44.453125 7.46875 
Q 49.3125 8.734375 54.109375 11.28125 
L 54.109375 2.78125 
Q 49.265625 0.734375 44.1875 -0.34375 
Q 39.109375 -1.421875 33.890625 -1.421875 
Q 20.796875 -1.421875 13.15625 6.1875 
Q 5.515625 13.8125 5.515625 26.8125 
Q 5.515625 40.234375 12.765625 48.109375 
Q 20.015625 56 32.328125 56 
Q 43.359375 56 49.78125 48.890625 
Q 56.203125 41.796875 56.203125 29.59375 
M 47.21875 32.234375 
Q 47.125 39.59375 43.09375 43.984375 
Q 39.0625 48.390625 32.421875 48.390625 
Q 24.90625 48.390625 20.390625 44.140625 
Q 15.875 39.890625 15.1875 32.171875 
z
" id="DejaVuSans-65"/>
      <path d="M 44.28125 53.078125 
L 44.28125 44.578125 
Q 40.484375 46.53125 36.375 47.5 
Q 32.28125 48.484375 27.875 48.484375 
Q 21.1875 48.484375 17.84375 46.4375 
Q 14.5 44.390625 14.5 40.28125 
Q 14.5 37.15625 16.890625 35.375 
Q 19.28125 33.59375 26.515625 31.984375 
L 29.59375 31.296875 
Q 39.15625 29.25 43.1875 25.515625 
Q 47.21875 21.78125 47.21875 15.09375 
Q 47.21875 7.46875 41.1875 3.015625 
Q 35.15625 -1.421875 24.609375 -1.421875 
Q 20.21875 -1.421875 15.453125 -0.5625 
Q 10.6875 0.296875 5.421875 2 
L 5.421875 11.28125 
Q 10.40625 8.6875 15.234375 7.390625 
Q 20.0625 6.109375 24.8125 6.109375 
Q 31.15625 6.109375 34.5625 8.28125 
Q 37.984375 10.453125 37.984375 14.40625 
Q 37.984375 18.0625 35.515625 20.015625 
Q 33.0625 21.96875 24.703125 23.78125 
L 21.578125 24.515625 
Q 13.234375 26.265625 9.515625 29.90625 
Q 5.8125 33.546875 5.8125 39.890625 
Q 5.8125 47.609375 11.28125 51.796875 
Q 16.75 56 26.8125 56 
Q 31.78125 56 36.171875 55.265625 
Q 40.578125 54.546875 44.28125 53.078125 
" id="DejaVuSans-73"/>
      <path d="M 18.3125 70.21875 
L 18.3125 54.6875 
L 36.8125 54.6875 
L 36.8125 47.703125 
L 18.3125 47.703125 
L 18.3125 18.015625 
Q 18.3125 11.328125 20.140625 9.421875 
Q 21.96875 7.515625 27.59375 7.515625 
L 36.8125 7.515625 
L 36.8125 0 
L 27.59375 0 
Q 17.1875 0 13.234375 3.875 
Q 9.28125 7.765625 9.28125 18.015625 
L 9.28125 47.703125 
L 2.6875 47.703125 
L 2.6875 54.6875 
L 9.28125 54.6875 
L 9.28125 70.21875 
z
" id="DejaVuSans-74"/>
      <path d="M 18.109375 8.203125 
L 18.109375 -20.796875 
L 9.078125 -20.796875 
L 9.078125 54.6875 
L 18.109375 54.6875 
L 18.109375 46.390625 
Q 20.953125 51.265625 25.265625 53.625 
Q 29.59375 56 35.59375 56 
Q 45.5625 56 51.78125 48.09375 
Q 58.015625 40.1875 58.015625 27.296875 
Q 58.015625 14.40625 51.78125 6.484375 
Q 45.5625 -1.421875 35.59375 -1.421875 
Q 29.59375 -1.421875 25.265625 0.953125 
Q 20.953125 3.328125 18.109375 8.203125 
M 48.6875 27.296875 
Q 48.6875 37.203125 44.609375 42.84375 
Q 40.53125 48.484375 33.40625 48.484375 
Q 26.265625 48.484375 22.1875 42.84375 
Q 18.109375 37.203125 18.109375 27.296875 
Q 18.109375 17.390625 22.1875 11.75 
Q 26.265625 6.109375 33.40625 6.109375 
Q 40.53125 6.109375 44.609375 11.75 
Q 48.6875 17.390625 48.6875 27.296875 
" id="DejaVuSans-70"/>
     </defs>
     <g transform="translate(899.296875 973.276562)scale(0.1 -0.1)">
      <use xlink:href="#DejaVuSans-54"/>
      <use x="61.037109" xlink:href="#DejaVuSans-69"/>
      <use x="88.820312" xlink:href="#DejaVuSans-6d"/>
      <use x="186.232422" xlink:href="#DejaVuSans-65"/>
      <use x="247.755859" xlink:href="#DejaVuSans-73"/>
      <use x="299.855469" xlink:href="#DejaVuSans-74"/>
      <use x="339.064453" xlink:href="#DejaVuSans-65"/>
      <use x="400.587891" xlink:href="#DejaVuSans-70"/>
     </g>
    </g>
   </g>
   <g id="matplotlib.axis_2">
    <g id="ytick_1">
     <g id="line2d_7">
      <defs>
       <path d="M 0 0 
L -3.5 0 
" id="m310f21d8da" style="stroke:#000000;stroke-width:0.8;"/>
      </defs>
      <g>
       <use style="stroke:#000000;stroke-width:0.8;" x="225" xlink:href="#m310f21d8da" y="945"/>
      </g>
     </g>
     <g id="text_8">
      <!-- 0 -->
      <g transform="translate(211.6375 948.799219)scale(0.1 -0.1)">
       <use xlink:href="#DejaVuSans-30"/>
      </g>
     </g>
    </g>
    <g id="ytick_2">
     <g id="line2d_8">
      <g>
       <use style="stroke:#000000;stroke-width:0.8;" x="225" xlink:href="#m310f21d8da" y="781.92"/>
      </g>
     </g>
     <g id="text_9">
      <!-- 10 -->
      <g transform="translate(205.275 785.719219)scale(0.1 -0.1)">
       <use xlink:href="#DejaVuSans-31"/>
       <use x="63.623047" xlink:href="#DejaVuSans-30"/>
      </g>
     </g>
    </g>
    <g id="ytick_3">
     <g id="line2d_9">
      <g>
       <use style="stroke:#000000;stroke-width:0.8;" x="225" xlink:href="#m310f21d8da" y="618.84"/>
      </g>
     </g>
     <g id="text_10">
      <!-- 20 -->
      <g transform="translate(205.275 622.639219)scale(0.1 -0.1)">
       <use xlink:href="#DejaVuSans-32"/>
       <use x="63.623047" xlink:href="#DejaVuSans-30"/>
      </g>
     </g>
    </g>
    <g id="ytick_4">
     <g id="line2d_10">
      <g>
       <use style="stroke:#000000;stroke-width:0.8;" x="225" xlink:href="#m310f21d8da" y="455.76"/>
      </g>
     </g>
     <g id="text_11">
      <!-- 30 -->
      <defs>
       <path d="M 40.578125 39.3125 
Q 47.65625 37.796875 51.625 33 
Q 55.609375 28.21875 55.609375 21.1875 
Q 55.609375 10.40625 48.1875 4.484375 
Q 40.765625 -1.421875 27.09375 -1.421875 
Q 22.515625 -1.421875 17.65625 -0.515625 
Q 12.796875 0.390625 7.625 2.203125 
L 7.625 11.71875 
Q 11.71875 9.328125 16.59375 8.109375 
Q 21.484375 6.890625 26.8125 6.890625 
Q 36.078125 6.890625 40.9375 10.546875 
Q 45.796875 14.203125 45.796875 21.1875 
Q 45.796875 27.640625 41.28125 31.265625 
Q 36.765625 34.90625 28.71875 34.90625 
L 20.21875 34.90625 
L 20.21875 43.015625 
L 29.109375 43.015625 
Q 36.375 43.015625 40.234375 45.921875 
Q 44.09375 48.828125 44.09375 54.296875 
Q 44.09375 59.90625 40.109375 62.90625 
Q 36.140625 65.921875 28.71875 65.921875 
Q 24.65625 65.921875 20.015625 65.03125 
Q 15.375 64.15625 9.8125 62.3125 
L 9.8125 71.09375 
Q 15.4375 72.65625 20.34375 73.4375 
Q 25.25 74.21875 29.59375 74.21875 
Q 40.828125 74.21875 47.359375 69.109375 
Q 53.90625 64.015625 53.90625 55.328125 
Q 53.90625 49.265625 50.4375 45.09375 
Q 46.96875 40.921875 40.578125 39.3125 
" id="DejaVuSans-33"/>
      </defs>
      <g transform="translate(205.275 459.559219)scale(0.1 -0.1)">
       <use xlink:href="#DejaVuSans-33"/>
       <use x="63.623047" xlink:href="#DejaVuSans-30"/>
      </g>
     </g>
    </g>
    <g id="ytick_5">
     <g id="line2d_11">
      <g>
       <use style="stroke:#000000;stroke-width:0.8;" x="225" xlink:href="#m310f21d8da" y="292.68"/>
      </g>
     </g>
     <g id="text_12">
      <!-- 40 -->
      <g transform="translate(205.275 296.479219)scale(0.1 -0.1)">
       <use xlink:href="#DejaVuSans-34"/>
       <use x="63.623047" xlink:href="#DejaVuSans-30"/>
      </g>
     </g>
    </g>
    <g id="ytick_6">
     <g id="line2d_12">
      <g>
       <use style="stroke:#000000;stroke-width:0.8;" x="225" xlink:href="#m310f21d8da" y="129.6"/>
      </g>
     </g>
     <g id="text_13">
      <!-- 50 -->
      <defs>
       <path d="M 10.796875 72.90625 
L 49.515625 72.90625 
L 49.515625 64.59375 
L 19.828125 64.59375 
L 19.828125 46.734375 
Q 21.96875 47.46875 24.109375 47.828125 
Q 26.265625 48.1875 28.421875 48.1875 
Q 40.625 48.1875 47.75 41.5 
Q 54.890625 34.8125 54.890625 23.390625 
Q 54.890625 11.625 47.5625 5.09375 
Q 40.234375 -1.421875 26.90625 -1.421875 
Q 22.3125 -1.421875 17.546875 -0.640625 
Q 12.796875 0.140625 7.71875 1.703125 
L 7.71875 11.625 
Q 12.109375 9.234375 16.796875 8.0625 
Q 21.484375 6.890625 26.703125 6.890625 
Q 35.15625 6.890625 40.078125 11.328125 
Q 45.015625 15.765625 45.015625 23.390625 
Q 45.015625 31 40.078125 35.4375 
Q 35.15625 39.890625 26.703125 39.890625 
Q 22.75 39.890625 18.8125 39.015625 
Q 14.890625 38.140625 10.796875 36.28125 
z
" id="DejaVuSans-35"/>
      </defs>
      <g transform="translate(205.275 133.399219)scale(0.1 -0.1)">
       <use xlink:href="#DejaVuSans-35"/>
       <use x="63.623047" xlink:href="#DejaVuSans-30"/>
      </g>
     </g>
    </g>
    <g id="text_14">
     <!-- Substrates occupied -->
     <defs>
      <path d="M 53.515625 70.515625 
L 53.515625 60.890625 
Q 47.90625 63.578125 42.921875 64.890625 
Q 37.9375 66.21875 33.296875 66.21875 
Q 25.25 66.21875 20.875 63.09375 
Q 16.5 59.96875 16.5 54.203125 
Q 16.5 49.359375 19.40625 46.890625 
Q 22.3125 44.4375 30.421875 42.921875 
L 36.375 41.703125 
Q 47.40625 39.59375 52.65625 34.296875 
Q 57.90625 29 57.90625 20.125 
Q 57.90625 9.515625 50.796875 4.046875 
Q 43.703125 -1.421875 29.984375 -1.421875 
Q 24.8125 -1.421875 18.96875 -0.25 
Q 13.140625 0.921875 6.890625 3.21875 
L 6.890625 13.375 
Q 12.890625 10.015625 18.65625 8.296875 
Q 24.421875 6.59375 29.984375 6.59375 
Q 38.421875 6.59375 43.015625 9.90625 
Q 47.609375 13.234375 47.609375 19.390625 
Q 47.609375 24.75 44.3125 27.78125 
Q 41.015625 30.8125 33.5 32.328125 
L 27.484375 33.5 
Q 16.453125 35.6875 11.515625 40.375 
Q 6.59375 45.0625 6.59375 53.421875 
Q 6.59375 63.09375 13.40625 68.65625 
Q 20.21875 74.21875 32.171875 74.21875 
Q 37.3125 74.21875 42.625 73.28125 
Q 47.953125 72.359375 53.515625 70.515625 
" id="DejaVuSans-53"/>
      <path d="M 8.5 21.578125 
L 8.5 54.6875 
L 17.484375 54.6875 
L 17.484375 21.921875 
Q 17.484375 14.15625 20.5 10.265625 
Q 23.53125 6.390625 29.59375 6.390625 
Q 36.859375 6.390625 41.078125 11.03125 
Q 45.3125 15.671875 45.3125 23.6875 
L 45.3125 54.6875 
L 54.296875 54.6875 
L 54.296875 0 
L 45.3125 0 
L 45.3125 8.40625 
Q 42.046875 3.421875 37.71875 1 
Q 33.40625 -1.421875 27.6875 -1.421875 
Q 18.265625 -1.421875 13.375 4.4375 
Q 8.5 10.296875 8.5 21.578125 
M 31.109375 56 
z
" id="DejaVuSans-75"/>
      <path d="M 48.6875 27.296875 
Q 48.6875 37.203125 44.609375 42.84375 
Q 40.53125 48.484375 33.40625 48.484375 
Q 26.265625 48.484375 22.1875 42.84375 
Q 18.109375 37.203125 18.109375 27.296875 
Q 18.109375 17.390625 22.1875 11.75 
Q 26.265625 6.109375 33.40625 6.109375 
Q 40.53125 6.109375 44.609375 11.75 
Q 48.6875 17.390625 48.6875 27.296875 
M 18.109375 46.390625 
Q 20.953125 51.265625 25.265625 53.625 
Q 29.59375 56 35.59375 56 
Q 45.5625 56 51.78125 48.09375 
Q 58.015625 40.1875 58.015625 27.296875 
Q 58.015625 14.40625 51.78125 6.484375 
Q 45.5625 -1.421875 35.59375 -1.421875 
Q 29.59375 -1.421875 25.265625 0.953125 
Q 20.953125 3.328125 18.109375 8.203125 
L 18.109375 0 
L 9.078125 0 
L 9.078125 75.984375 
L 18.109375 75.984375 
z
" id="DejaVuSans-62"/>
      <path d="M 41.109375 46.296875 
Q 39.59375 47.171875 37.8125 47.578125 
Q 36.03125 48 33.890625 48 
Q 26.265625 48 22.1875 43.046875 
Q 18.109375 38.09375 18.109375 28.8125 
L 18.109375 0 
L 9.078125 0 
L 9.078125 54.6875 
L 18.109375 54.6875 
L 18.109375 46.1875 
Q 20.953125 51.171875 25.484375 53.578125 
Q 30.03125 56 36.53125 56 
Q 37.453125 56 38.578125 55.875 
Q 39.703125 55.765625 41.0625 55.515625 
z
" id="DejaVuSans-72"/>
      <path d="M 34.28125 27.484375 
Q 23.390625 27.484375 19.1875 25 
Q 14.984375 22.515625 14.984375 16.5 
Q 14.984375 11.71875 18.140625 8.90625 
Q 21.296875 6.109375 26.703125 6.109375 
Q 34.1875 6.109375 38.703125 11.40625 
Q 43.21875 16.703125 43.21875 25.484375 
L 43.21875 27.484375 
z
M 52.203125 31.203125 
L 52.203125 0 
L 43.21875 0 
L 43.21875 8.296875 
Q 40.140625 3.328125 35.546875 0.953125 
Q 30.953125 -1.421875 24.3125 -1.421875 
Q 15.921875 -1.421875 10.953125 3.296875 
Q 6 8.015625 6 15.921875 
Q 6 25.140625 12.171875 29.828125 
Q 18.359375 34.515625 30.609375 34.515625 
L 43.21875 34.515625 
L 43.21875 35.40625 
Q 43.21875 41.609375 39.140625 45 
Q 35.0625 48.390625 27.6875 48.390625 
Q 23 48.390625 18.546875 47.265625 
Q 14.109375 46.140625 10.015625 43.890625 
L 10.015625 52.203125 
Q 14.9375 54.109375 19.578125 55.046875 
Q 24.21875 56 28.609375 56 
Q 40.484375 56 46.34375 49.84375 
Q 52.203125 43.703125 52.203125 31.203125 
" id="DejaVuSans-61"/>
      <path id="DejaVuSans-20"/>
      <path d="M 30.609375 48.390625 
Q 23.390625 48.390625 19.1875 42.75 
Q 14.984375 37.109375 14.984375 27.296875 
Q 14.984375 17.484375 19.15625 11.84375 
Q 23.34375 6.203125 30.609375 6.203125 
Q 37.796875 6.203125 41.984375 11.859375 
Q 46.1875 17.53125 46.1875 27.296875 
Q 46.1875 37.015625 41.984375 42.703125 
Q 37.796875 48.390625 30.609375 48.390625 
M 30.609375 56 
Q 42.328125 56 49.015625 48.375 
Q 55.71875 40.765625 55.71875 27.296875 
Q 55.71875 13.875 49.015625 6.21875 
Q 42.328125 -1.421875 30.609375 -1.421875 
Q 18.84375 -1.421875 12.171875 6.21875 
Q 5.515625 13.875 5.515625 27.296875 
Q 5.515625 40.765625 12.171875 48.375 
Q 18.84375 56 30.609375 56 
" id="DejaVuSans-6f"/>
      <path d="M 48.78125 52.59375 
L 48.78125 44.1875 
Q 44.96875 46.296875 41.140625 47.34375 
Q 37.3125 48.390625 33.40625 48.390625 
Q 24.65625 48.390625 19.8125 42.84375 
Q 14.984375 37.3125 14.984375 27.296875 
Q 14.984375 17.28125 19.8125 11.734375 
Q 24.65625 6.203125 33.40625 6.203125 
Q 37.3125 6.203125 41.140625 7.25 
Q 44.96875 8.296875 48.78125 10.40625 
L 48.78125 2.09375 
Q 45.015625 0.34375 40.984375 -0.53125 
Q 36.96875 -1.421875 32.421875 -1.421875 
Q 20.0625 -1.421875 12.78125 6.34375 
Q 5.515625 14.109375 5.515625 27.296875 
Q 5.515625 40.671875 12.859375 48.328125 
Q 20.21875 56 33.015625 56 
Q 37.15625 56 41.109375 55.140625 
Q 45.0625 54.296875 48.78125 52.59375 
" id="DejaVuSans-63"/>
      <path d="M 45.40625 46.390625 
L 45.40625 75.984375 
L 54.390625 75.984375 
L 54.390625 0 
L 45.40625 0 
L 45.40625 8.203125 
Q 42.578125 3.328125 38.25 0.953125 
Q 33.9375 -1.421875 27.875 -1.421875 
Q 17.96875 -1.421875 11.734375 6.484375 
Q 5.515625 14.40625 5.515625 27.296875 
Q 5.515625 40.1875 11.734375 48.09375 
Q 17.96875 56 27.875 56 
Q 33.9375 56 38.25 53.625 
Q 42.578125 51.265625 45.40625 46.390625 
M 14.796875 27.296875 
Q 14.796875 17.390625 18.875 11.75 
Q 22.953125 6.109375 30.078125 6.109375 
Q 37.203125 6.109375 41.296875 11.75 
Q 45.40625 17.390625 45.40625 27.296875 
Q 45.40625 37.203125 41.296875 42.84375 
Q 37.203125 48.484375 30.078125 48.484375 
Q 22.953125 48.484375 18.875 42.84375 
Q 14.796875 37.203125 14.796875 27.296875 
" id="DejaVuSans-64"/>
     </defs>
     <g transform="translate(199.195312 588.272656)rotate(-90)scale(0.1 -0.1)">
      <use xlink:href="#DejaVuSans-53"/>
      <use x="63.476562" xlink:href="#DejaVuSans-75"/>
      <use x="126.855469" xlink:href="#DejaVuSans-62"/>
      <use x="190.332031" xlink:href="#DejaVuSans-73"/>
      <use x="242.431641" xlink:href="#DejaVuSans-74"/>
      <use x="281.640625" xlink:href="#DejaVuSans-72"/>
      <use x="322.753906" xlink:href="#DejaVuSans-61"/>
      <use x="384.033203" xlink:href="#DejaVuSans-74"/>
      <use x="423.242188" xlink:href="#DejaVuSans-65"/>
      <use x="484.765625" xlink:href="#DejaVuSans-73"/>
      <use x="536.865234" xlink:href="#DejaVuSans-20"/>
      <use x="568.652344" xlink:href="#DejaVuSans-6f"/>
      <use x="629.833984" xlink:href="#DejaVuSans-63"/>
      <use x="684.814453" xlink:href="#DejaVuSans-63"/>
      <use x="739.794922" xlink:href="#DejaVuSans-75"/>
      <use x="803.173828" xlink:href="#DejaVuSans-70"/>
      <use x="866.650391" xlink:href="#DejaVuSans-69"/>
      <use x="894.433594" xlink:href="#DejaVuSans-65"/>
      <use x="955.957031" xlink:href="#DejaVuSans-64"/>
     </g>
    </g>
   </g>
   <g id="line2d_13">
    <path clip-path="url(#p1c510ea40c)" d="M 288.409091 902.43612 
L 301.219008 885.31272 
L 314.028926 886.12812 
L 326.838843 872.59248 
L 339.64876 851.71824 
L 352.458678 834.26868 
L 365.268595 840.6288 
L 378.078512 829.86552 
L 390.88843 806.382 
L 403.698347 788.93244 
L 416.508264 796.27104 
L 429.318182 776.53836 
L 442.128099 746.69472 
L 454.938017 726.14664 
L 467.747934 739.02996 
L 480.557851 719.78652 
L 493.367769 686.84436 
L 506.177686 670.86252 
L 518.987603 688.149 
L 531.797521 661.73004 
L 544.607438 621.44928 
L 557.417355 611.17524 
L 570.227273 633.02796 
L 583.03719 622.917 
L 595.847107 587.52864 
L 608.657025 578.72232 
L 621.466942 602.85816 
L 634.27686 598.61808 
L 647.086777 584.43012 
L 659.896694 579.86388 
L 672.706612 606.609 
L 685.516529 614.27376 
L 698.326446 610.35984 
L 711.136364 622.42776 
L 723.946281 649.17288 
L 736.756198 669.23172 
L 749.566116 681.29964 
L 762.376033 695.16144 
L 775.18595 721.74348 
L 787.995868 741.63924 
L 800.805785 739.5192 
L 813.615702 747.02088 
L 826.42562 760.55652 
L 839.235537 769.03668 
L 852.045455 759.41496 
L 864.855372 762.51348 
L 877.665289 773.43984 
L 890.475207 780.45228 
L 903.285124 778.49532 
L 916.095041 779.63688 
L 928.904959 787.30164 
L 941.714876 793.66176 
L 954.524793 785.1816 
L 967.334711 783.06156 
L 980.144628 787.95396 
L 992.954545 791.05248 
L 1005.764463 782.57232 
L 1018.57438 777.51684 
L 1031.384298 783.5508 
L 1044.194215 784.85544 
L 1057.004132 768.22128 
L 1069.81405 763.00272 
L 1082.623967 772.9506 
L 1095.433884 779.4738 
L 1108.243802 777.51684 
L 1121.053719 773.11368 
L 1133.863636 787.95396 
L 1146.673554 794.47716 
L 1159.483471 796.92336 
L 1172.293388 792.68328 
L 1185.103306 802.79424 
L 1197.913223 808.50204 
L 1210.72314 806.70816 
L 1223.533058 802.14192 
L 1236.342975 810.62208 
L 1249.152893 819.59148 
L 1261.96281 815.84064 
L 1274.772727 811.76364 
L 1287.582645 814.86216 
L 1300.392562 821.8746 
L 1313.202479 812.9052 
L 1326.012397 816.1668 
L 1338.822314 820.40688 
L 1351.632231 829.2132 
L 1364.442149 827.74548 
L 1377.252066 829.05012 
L 1390.061983 831.00708 
L 1402.871901 835.24716 
L 1415.681818 833.2902 
L 1428.491736 829.05012 
L 1441.301653 831.98556 
L 1454.11157 837.3672 
L 1466.921488 834.59484 
L 1479.731405 830.35476 
L 1492.541322 834.75792 
L 1505.35124 838.50876 
L 1518.161157 839.97648 
L 1530.971074 837.85644 
L 1543.780992 840.95496 
L 1556.590909 848.13048 
" style="fill:none;stroke:#ff0000;stroke-linecap:square;stroke-width:1.5;"/>
   </g>
   <g id="line2d_14">
    <path clip-path="url(#p1c510ea40c)" d="M 288.409091 925.10424 
L 301.219008 918.0918 
L 314.028926 912.384 
L 326.838843 907.65468 
L 339.64876 900.80532 
L 352.458678 894.28212 
L 365.268595 889.71588 
L 378.078512 887.922 
L 390.88843 882.86652 
L 403.698347 878.62644 
L 416.508264 869.33088 
L 429.318182 864.2754 
L 442.128099 857.7522 
L 454.938017 850.90284 
L 467.747934 847.31508 
L 480.557851 844.86888 
L 493.367769 841.11804 
L 506.177686 829.53936 
L 518.987603 821.8746 
L 531.797521 818.28684 
L 544.607438 818.44992 
L 557.417355 815.67756 
L 570.227273 810.13284 
L 583.03719 803.28348 
L 595.847107 800.18496 
L 608.657025 801.4896 
L 621.466942 799.0434 
L 634.27686 793.00944 
L 647.086777 793.49868 
L 659.896694 792.19404 
L 672.706612 794.47716 
L 685.516529 795.45564 
L 698.326446 793.3356 
L 711.136364 794.151 
L 723.946281 796.27104 
L 736.756198 797.4126 
L 749.566116 797.08644 
L 762.376033 800.18496 
L 775.18595 800.02188 
L 787.995868 798.39108 
L 800.805785 798.88032 
L 813.615702 798.71724 
L 826.42562 798.88032 
L 839.235537 795.29256 
L 852.045455 786.8124 
L 864.855372 785.01852 
L 877.665289 779.4738 
L 890.475207 777.19068 
L 903.285124 774.5814 
L 916.095041 774.90756 
L 928.904959 774.5814 
L 941.714876 777.843 
L 954.524793 779.14764 
L 967.334711 784.85544 
L 980.144628 784.85544 
L 992.954545 788.28012 
L 1005.764463 788.4432 
L 1018.57438 790.72632 
L 1031.384298 788.60628 
L 1044.194215 783.06156 
L 1057.004132 780.94152 
L 1069.81405 775.23372 
L 1082.623967 773.43984 
L 1095.433884 772.1352 
L 1108.243802 774.09216 
L 1121.053719 767.07972 
L 1133.863636 766.10124 
L 1146.673554 767.40588 
L 1159.483471 761.69808 
L 1172.293388 763.81812 
L 1185.103306 762.18732 
L 1197.913223 763.00272 
L 1210.72314 761.20884 
L 1223.533058 757.29492 
L 1236.342975 758.2734 
L 1249.152893 751.7502 
L 1261.96281 746.53164 
L 1274.772727 738.54072 
L 1287.582645 734.95296 
L 1300.392562 735.4422 
L 1313.202479 736.09452 
L 1326.012397 735.60528 
L 1338.822314 734.13756 
L 1351.632231 732.01752 
L 1364.442149 734.13756 
L 1377.252066 737.39916 
L 1390.061983 732.996 
L 1402.871901 725.49432 
L 1415.681818 725.33124 
L 1428.491736 724.67892 
L 1441.301653 720.43884 
L 1454.11157 717.99264 
L 1466.921488 717.82956 
L 1479.731405 719.62344 
L 1492.541322 719.62344 
L 1505.35124 723.86352 
L 1518.161157 723.53736 
L 1530.971074 726.4728 
L 1543.780992 727.45128 
L 1556.590909 733.48524 
" style="fill:none;stroke:#0000ff;stroke-linecap:square;stroke-width:1.5;"/>
   </g>
   <g id="line2d_15">
    <path clip-path="url(#p1c510ea40c)" d="M 288.409091 941.14164 
L 301.219008 937.952063 
L 314.028926 938.363621 
L 326.838843 936.768833 
L 339.64876 934.170871 
L 352.458678 932.267413 
L 365.268595 931.778688 
L 378.078512 930.158177 
L 390.88843 926.557041 
L 403.698347 921.901287 
L 416.508264 919.740606 
L 429.318182 918.248707 
L 442.128099 914.287457 
L 454.938017 910.094707 
L 467.747934 906.493571 
L 480.557851 905.181729 
L 493.367769 901.451981 
L 506.177686 897.182063 
L 518.987603 894.481211 
L 531.797521 893.400871 
L 544.607438 890.519962 
L 557.417355 887.253218 
L 570.227273 884.012196 
L 583.03719 880.796896 
L 595.847107 880.822618 
L 608.657025 879.12494 
L 621.466942 879.02205 
L 634.27686 872.745785 
L 647.086777 870.996662 
L 659.896694 869.530486 
L 672.706612 867.524139 
L 685.516529 864.720397 
L 698.326446 863.331388 
L 711.136364 860.321868 
L 723.946281 859.678808 
L 736.756198 855.563224 
L 749.566116 855.434612 
L 762.376033 854.148492 
L 775.18595 854.508606 
L 787.995868 852.270757 
L 800.805785 853.299653 
L 813.615702 855.023054 
L 826.42562 854.01988 
L 839.235537 852.219312 
L 852.045455 849.827129 
L 864.855372 849.801407 
L 877.665289 849.312681 
L 890.475207 848.309508 
L 903.285124 844.965596 
L 916.095041 845.943047 
L 928.904959 840.952902 
L 941.714876 840.052618 
L 954.524793 838.123438 
L 967.334711 838.972278 
L 980.144628 838.663609 
L 992.954545 839.589615 
L 1005.764463 838.483552 
L 1018.57438 837.480379 
L 1031.384298 836.400038 
L 1044.194215 835.731256 
L 1057.004132 836.091369 
L 1069.81405 835.293975 
L 1082.623967 833.622019 
L 1095.433884 832.104397 
L 1108.243802 831.770006 
L 1121.053719 829.815104 
L 1133.863636 830.072328 
L 1146.673554 830.175218 
L 1159.483471 829.892271 
L 1172.293388 830.20094 
L 1185.103306 829.583603 
L 1197.913223 829.66077 
L 1210.72314 828.786208 
L 1223.533058 828.991987 
L 1236.342975 825.390852 
L 1249.152893 822.58711 
L 1261.96281 821.198101 
L 1274.772727 822.561388 
L 1287.582645 821.198101 
L 1300.392562 818.908808 
L 1313.202479 818.471527 
L 1326.012397 817.133962 
L 1338.822314 816.542347 
L 1351.632231 815.153338 
L 1364.442149 812.503931 
L 1377.252066 810.188915 
L 1390.061983 807.951066 
L 1402.871901 806.510612 
L 1415.681818 804.632877 
L 1428.491736 803.552536 
L 1441.301653 801.34041 
L 1454.11157 801.726246 
L 1466.921488 800.105735 
L 1479.731405 797.327716 
L 1492.541322 796.607489 
L 1505.35124 795.990151 
L 1518.161157 796.478877 
L 1530.971074 796.684656 
L 1543.780992 797.739274 
L 1556.590909 797.199104 
" style="fill:none;stroke:#008000;stroke-dasharray:2.2,2.2;stroke-dashoffset:0;"/>
   </g>
   <g id="patch_3">
    <path d="M 225 945 
L 225 129.6 
" style="fill:none;stroke:#000000;stroke-linecap:square;stroke-linejoin:miter;stroke-width:0.8;"/>
   </g>
   <g id="patch_4">
    <path d="M 1620 945 
L 1620 129.6 
" style="fill:none;stroke:#000000;stroke-linecap:square;stroke-linejoin:miter;stroke-width:0.8;"/>
   </g>
   <g id="patch_5">
    <path d="M 225 945 
L 1620 945 
" style="fill:none;stroke:#000000;stroke-linecap:square;stroke-linejoin:miter;stroke-width:0.8;"/>
   </g>
   <g id="patch_6">
    <path d="M 225 129.6 
L 1620 129.6 
" style="fill:none;stroke:#000000;stroke-linecap:square;stroke-linejoin:miter;stroke-width:0.8;"/>
   </g>
   <g id="text_15">
    <!-- Control -->
    <defs>
     <path d="M 64.40625 67.28125 
L 64.40625 56.890625 
Q 59.421875 61.53125 53.78125 63.8125 
Q 48.140625 66.109375 41.796875 66.109375 
Q 29.296875 66.109375 22.65625 58.46875 
Q 16.015625 50.828125 16.015625 36.375 
Q 16.015625 21.96875 22.65625 14.328125 
Q 29.296875 6.6875 41.796875 6.6875 
Q 48.140625 6.6875 53.78125 8.984375 
Q 59.421875 11.28125 64.40625 15.921875 
L 64.40625 5.609375 
Q 59.234375 2.09375 53.4375 0.328125 
Q 47.65625 -1.421875 41.21875 -1.421875 
Q 24.65625 -1.421875 15.125 8.703125 
Q 5.609375 18.84375 5.609375 36.375 
Q 5.609375 53.953125 15.125 64.078125 
Q 24.65625 74.21875 41.21875 74.21875 
Q 47.75 74.21875 53.53125 72.484375 
Q 59.328125 70.75 64.40625 67.28125 
" id="DejaVuSans-43"/>
     <path d="M 54.890625 33.015625 
L 54.890625 0 
L 45.90625 0 
L 45.90625 32.71875 
Q 45.90625 40.484375 42.875 44.328125 
Q 39.84375 48.1875 33.796875 48.1875 
Q 26.515625 48.1875 22.3125 43.546875 
Q 18.109375 38.921875 18.109375 30.90625 
L 18.109375 0 
L 9.078125 0 
L 9.078125 54.6875 
L 18.109375 54.6875 
L 18.109375 46.1875 
Q 21.34375 51.125 25.703125 53.5625 
Q 30.078125 56 35.796875 56 
Q 45.21875 56 50.046875 50.171875 
Q 54.890625 44.34375 54.890625 33.015625 
" id="DejaVuSans-6e"/>
     <path d="M 9.421875 75.984375 
L 18.40625 75.984375 
L 18.40625 0 
L 9.421875 0 
z
" id="DejaVuSans-6c"/>
    </defs>
    <g transform="translate(900.681563 123.6)scale(0.12 -0.12)">
     <use xlink:href="#DejaVuSans-43"/>
     <use x="69.824219" xlink:href="#DejaVuSans-6f"/>
     <use x="131.005859" xlink:href="#DejaVuSans-6e"/>
     <use x="194.384766" xlink:href="#DejaVuSans-74"/>
     <use x="233.59375" xlink:href="#DejaVuSans-72"/>
     <use x="274.675781" xlink:href="#DejaVuSans-6f"/>
     <use x="335.857422" xlink:href="#DejaVuSans-6c"/>
    </g>
   </g>
   <g id="legend_1">
    <g id="patch_7">
     <path d="M 1319.74375 233.66875 
L 1606 233.66875 
Q 1610 233.66875 1610 229.66875 
L 1610 143.6 
Q 1610 139.6 1606 139.6 
L 1319.74375 139.6 
Q 1315.74375 139.6 1315.74375 143.6 
L 1315.74375 229.66875 
Q 1315.74375 233.66875 1319.74375 233.66875 
z
" style="fill:#ffffff;opacity:0.8;stroke:#cccccc;stroke-linejoin:miter;"/>
    </g>
    <g id="line2d_16">
     <path d="M 1323.74375 155.796875 
L 1363.74375 155.796875 
" style="fill:none;stroke:#ff0000;stroke-linecap:square;stroke-width:1.5;"/>
    </g>
    <g id="line2d_17"/>
    <g id="text_16">
     <!-- decomposer -->
     <g transform="translate(1379.74375 162.796875)scale(0.2 -0.2)">
      <use xlink:href="#DejaVuSans-64"/>
      <use x="63.476562" xlink:href="#DejaVuSans-65"/>
      <use x="125" xlink:href="#DejaVuSans-63"/>
      <use x="179.980469" xlink:href="#DejaVuSans-6f"/>
      <use x="241.162109" xlink:href="#DejaVuSans-6d"/>
      <use x="338.574219" xlink:href="#DejaVuSans-70"/>
      <use x="402.050781" xlink:href="#DejaVuSans-6f"/>
      <use x="463.232422" xlink:href="#DejaVuSans-73"/>
      <use x="515.332031" xlink:href="#DejaVuSans-65"/>
      <use x="576.855469" xlink:href="#DejaVuSans-72"/>
     </g>
    </g>
    <g id="line2d_18">
     <path d="M 1323.74375 185.153125 
L 1363.74375 185.153125 
" style="fill:none;stroke:#0000ff;stroke-linecap:square;stroke-width:1.5;"/>
    </g>
    <g id="line2d_19"/>
    <g id="text_17">
     <!-- endophyte -->
     <defs>
      <path d="M 54.890625 33.015625 
L 54.890625 0 
L 45.90625 0 
L 45.90625 32.71875 
Q 45.90625 40.484375 42.875 44.328125 
Q 39.84375 48.1875 33.796875 48.1875 
Q 26.515625 48.1875 22.3125 43.546875 
Q 18.109375 38.921875 18.109375 30.90625 
L 18.109375 0 
L 9.078125 0 
L 9.078125 75.984375 
L 18.109375 75.984375 
L 18.109375 46.1875 
Q 21.34375 51.125 25.703125 53.5625 
Q 30.078125 56 35.796875 56 
Q 45.21875 56 50.046875 50.171875 
Q 54.890625 44.34375 54.890625 33.015625 
" id="DejaVuSans-68"/>
      <path d="M 32.171875 -5.078125 
Q 28.375 -14.84375 24.75 -17.8125 
Q 21.140625 -20.796875 15.09375 -20.796875 
L 7.90625 -20.796875 
L 7.90625 -13.28125 
L 13.1875 -13.28125 
Q 16.890625 -13.28125 18.9375 -11.515625 
Q 21 -9.765625 23.484375 -3.21875 
L 25.09375 0.875 
L 2.984375 54.6875 
L 12.5 54.6875 
L 29.59375 11.921875 
L 46.6875 54.6875 
L 56.203125 54.6875 
z
" id="DejaVuSans-79"/>
     </defs>
     <g transform="translate(1379.74375 192.153125)scale(0.2 -0.2)">
      <use xlink:href="#DejaVuSans-65"/>
      <use x="61.523438" xlink:href="#DejaVuSans-6e"/>
      <use x="124.902344" xlink:href="#DejaVuSans-64"/>
      <use x="188.378906" xlink:href="#DejaVuSans-6f"/>
      <use x="249.560547" xlink:href="#DejaVuSans-70"/>
      <use x="313.037109" xlink:href="#DejaVuSans-68"/>
      <use x="376.416016" xlink:href="#DejaVuSans-79"/>
      <use x="435.595703" xlink:href="#DejaVuSans-74"/>
      <use x="474.804688" xlink:href="#DejaVuSans-65"/>
     </g>
    </g>
    <g id="line2d_20">
     <path d="M 1323.74375 214.509375 
L 1363.74375 214.509375 
" style="fill:none;stroke:#008000;stroke-dasharray:2.2,2.2;stroke-dashoffset:0;"/>
    </g>
    <g id="line2d_21"/>
    <g id="text_18">
     <!-- percent trees infected -->
     <defs>
      <path d="M 37.109375 75.984375 
L 37.109375 68.5 
L 28.515625 68.5 
Q 23.6875 68.5 21.796875 66.546875 
Q 19.921875 64.59375 19.921875 59.515625 
L 19.921875 54.6875 
L 34.71875 54.6875 
L 34.71875 47.703125 
L 19.921875 47.703125 
L 19.921875 0 
L 10.890625 0 
L 10.890625 47.703125 
L 2.296875 47.703125 
L 2.296875 54.6875 
L 10.890625 54.6875 
L 10.890625 58.5 
Q 10.890625 67.625 15.140625 71.796875 
Q 19.390625 75.984375 28.609375 75.984375 
z
" id="DejaVuSans-66"/>
     </defs>
     <g transform="translate(1379.74375 221.509375)scale(0.2 -0.2)">
      <use xlink:href="#DejaVuSans-70"/>
      <use x="63.476562" xlink:href="#DejaVuSans-65"/>
      <use x="125" xlink:href="#DejaVuSans-72"/>
      <use x="166.082031" xlink:href="#DejaVuSans-63"/>
      <use x="221.0625" xlink:href="#DejaVuSans-65"/>
      <use x="282.585938" xlink:href="#DejaVuSans-6e"/>
      <use x="345.964844" xlink:href="#DejaVuSans-74"/>
      <use x="385.173828" xlink:href="#DejaVuSans-20"/>
      <use x="416.960938" xlink:href="#DejaVuSans-74"/>
      <use x="456.169922" xlink:href="#DejaVuSans-72"/>
      <use x="497.251953" xlink:href="#DejaVuSans-65"/>
      <use x="558.775391" xlink:href="#DejaVuSans-65"/>
      <use x="620.298828" xlink:href="#DejaVuSans-73"/>
      <use x="672.398438" xlink:href="#DejaVuSans-20"/>
      <use x="704.185547" xlink:href="#DejaVuSans-69"/>
      <use x="731.96875" xlink:href="#DejaVuSans-6e"/>
      <use x="795.347656" xlink:href="#DejaVuSans-66"/>
      <use x="830.552734" xlink:href="#DejaVuSans-65"/>
      <use x="892.076172" xlink:href="#DejaVuSans-63"/>
      <use x="947.056641" xlink:href="#DejaVuSans-74"/>
      <use x="986.265625" xlink:href="#DejaVuSans-65"/>
      <use x="1047.789062" xlink:href="#DejaVuSans-64"/>
     </g>
    </g>
   </g>
  </g>
 </g>
 <defs>
  <clipPath id="p1c510ea40c">
   <rect height="815.4" width="1395" x="225" y="129.6"/>
  </clipPath>
 </defs>
</svg>
