<?xml version="1.0" encoding="utf-8" standalone="no"?>
<!DOCTYPE svg PUBLIC "-//W3C//DTD SVG 1.1//EN"
  "http://www.w3.org/Graphics/SVG/1.1/DTD/svg11.dtd">
<!-- Created with matplotlib (http://matplotlib.org/) -->
<svg height="720pt" version="1.1" viewBox="0 0 874 720" width="874pt" xmlns="http://www.w3.org/2000/svg" xmlns:xlink="http://www.w3.org/1999/xlink">
 <defs>
  <style type="text/css">
*{stroke-linecap:butt;stroke-linejoin:round;}
  </style>
 </defs>
 <g id="figure_1">
  <g id="patch_1">
   <path d="M 0 720 
L 874.8 720 
L 874.8 0 
L 0 0 
z
" style="fill:#ffffff;"/>
  </g>
  <g id="axes_1">
   <g id="patch_2">
    <path d="M 109.35 640.8 
L 787.32 640.8 
L 787.32 86.4 
L 109.35 86.4 
z
" style="fill:#ffffff;"/>
   </g>
   <g id="matplotlib.axis_1">
    <g id="xtick_1">
     <g id="line2d_1">
      <defs>
       <path d="M 0 0 
L 0 3.5 
" id="m9930ce3056" style="stroke:#000000;stroke-width:0.8;"/>
      </defs>
      <g>
       <use style="stroke:#000000;stroke-width:0.8;" x="140.166818" xlink:href="#m9930ce3056" y="640.8"/>
      </g>
     </g>
     <g id="text_1">
      <!-- 0 -->
      <defs>
       <path d="M 31.78125 66.40625 
Q 24.171875 66.40625 20.328125 58.90625 
Q 16.5 51.421875 16.5 36.375 
Q 16.5 21.390625 20.328125 13.890625 
Q 24.171875 6.390625 31.78125 6.390625 
Q 39.453125 6.390625 43.28125 13.890625 
Q 47.125 21.390625 47.125 36.375 
Q 47.125 51.421875 43.28125 58.90625 
Q 39.453125 66.40625 31.78125 66.40625 
M 31.78125 74.21875 
Q 44.046875 74.21875 50.515625 64.515625 
Q 56.984375 54.828125 56.984375 36.375 
Q 56.984375 17.96875 50.515625 8.265625 
Q 44.046875 -1.421875 31.78125 -1.421875 
Q 19.53125 -1.421875 13.0625 8.265625 
Q 6.59375 17.96875 6.59375 36.375 
Q 6.59375 54.828125 13.0625 64.515625 
Q 19.53125 74.21875 31.78125 74.21875 
" id="DejaVuSans-30"/>
      </defs>
      <g transform="translate(136.985568 655.398438)scale(0.1 -0.1)">
       <use xlink:href="#DejaVuSans-30"/>
      </g>
     </g>
    </g>
    <g id="xtick_2">
     <g id="line2d_2">
      <g>
       <use style="stroke:#000000;stroke-width:0.8;" x="265.94975" xlink:href="#m9930ce3056" y="640.8"/>
      </g>
     </g>
     <g id="text_2">
      <!-- 10 -->
      <defs>
       <path d="M 12.40625 8.296875 
L 28.515625 8.296875 
L 28.515625 63.921875 
L 10.984375 60.40625 
L 10.984375 69.390625 
L 28.421875 72.90625 
L 38.28125 72.90625 
L 38.28125 8.296875 
L 54.390625 8.296875 
L 54.390625 0 
L 12.40625 0 
z
" id="DejaVuSans-31"/>
      </defs>
      <g transform="translate(259.58725 655.398438)scale(0.1 -0.1)">
       <use xlink:href="#DejaVuSans-31"/>
       <use x="63.623047" xlink:href="#DejaVuSans-30"/>
      </g>
     </g>
    </g>
    <g id="xtick_3">
     <g id="line2d_3">
      <g>
       <use style="stroke:#000000;stroke-width:0.8;" x="391.732681" xlink:href="#m9930ce3056" y="640.8"/>
      </g>
     </g>
     <g id="text_3">
      <!-- 20 -->
      <defs>
       <path d="M 19.1875 8.296875 
L 53.609375 8.296875 
L 53.609375 0 
L 7.328125 0 
L 7.328125 8.296875 
Q 12.9375 14.109375 22.625 23.890625 
Q 32.328125 33.6875 34.8125 36.53125 
Q 39.546875 41.84375 41.421875 45.53125 
Q 43.3125 49.21875 43.3125 52.78125 
Q 43.3125 58.59375 39.234375 62.25 
Q 35.15625 65.921875 28.609375 65.921875 
Q 23.96875 65.921875 18.8125 64.3125 
Q 13.671875 62.703125 7.8125 59.421875 
L 7.8125 69.390625 
Q 13.765625 71.78125 18.9375 73 
Q 24.125 74.21875 28.421875 74.21875 
Q 39.75 74.21875 46.484375 68.546875 
Q 53.21875 62.890625 53.21875 53.421875 
Q 53.21875 48.921875 51.53125 44.890625 
Q 49.859375 40.875 45.40625 35.40625 
Q 44.1875 33.984375 37.640625 27.21875 
Q 31.109375 20.453125 19.1875 8.296875 
" id="DejaVuSans-32"/>
      </defs>
      <g transform="translate(385.370181 655.398438)scale(0.1 -0.1)">
       <use xlink:href="#DejaVuSans-32"/>
       <use x="63.623047" xlink:href="#DejaVuSans-30"/>
      </g>
     </g>
    </g>
    <g id="xtick_4">
     <g id="line2d_4">
      <g>
       <use style="stroke:#000000;stroke-width:0.8;" x="517.515612" xlink:href="#m9930ce3056" y="640.8"/>
      </g>
     </g>
     <g id="text_4">
      <!-- 30 -->
      <defs>
       <path d="M 40.578125 39.3125 
Q 47.65625 37.796875 51.625 33 
Q 55.609375 28.21875 55.609375 21.1875 
Q 55.609375 10.40625 48.1875 4.484375 
Q 40.765625 -1.421875 27.09375 -1.421875 
Q 22.515625 -1.421875 17.65625 -0.515625 
Q 12.796875 0.390625 7.625 2.203125 
L 7.625 11.71875 
Q 11.71875 9.328125 16.59375 8.109375 
Q 21.484375 6.890625 26.8125 6.890625 
Q 36.078125 6.890625 40.9375 10.546875 
Q 45.796875 14.203125 45.796875 21.1875 
Q 45.796875 27.640625 41.28125 31.265625 
Q 36.765625 34.90625 28.71875 34.90625 
L 20.21875 34.90625 
L 20.21875 43.015625 
L 29.109375 43.015625 
Q 36.375 43.015625 40.234375 45.921875 
Q 44.09375 48.828125 44.09375 54.296875 
Q 44.09375 59.90625 40.109375 62.90625 
Q 36.140625 65.921875 28.71875 65.921875 
Q 24.65625 65.921875 20.015625 65.03125 
Q 15.375 64.15625 9.8125 62.3125 
L 9.8125 71.09375 
Q 15.4375 72.65625 20.34375 73.4375 
Q 25.25 74.21875 29.59375 74.21875 
Q 40.828125 74.21875 47.359375 69.109375 
Q 53.90625 64.015625 53.90625 55.328125 
Q 53.90625 49.265625 50.4375 45.09375 
Q 46.96875 40.921875 40.578125 39.3125 
" id="DejaVuSans-33"/>
      </defs>
      <g transform="translate(511.153112 655.398438)scale(0.1 -0.1)">
       <use xlink:href="#DejaVuSans-33"/>
       <use x="63.623047" xlink:href="#DejaVuSans-30"/>
      </g>
     </g>
    </g>
    <g id="xtick_5">
     <g id="line2d_5">
      <g>
       <use style="stroke:#000000;stroke-width:0.8;" x="643.298544" xlink:href="#m9930ce3056" y="640.8"/>
      </g>
     </g>
     <g id="text_5">
      <!-- 40 -->
      <defs>
       <path d="M 37.796875 64.3125 
L 12.890625 25.390625 
L 37.796875 25.390625 
z
M 35.203125 72.90625 
L 47.609375 72.90625 
L 47.609375 25.390625 
L 58.015625 25.390625 
L 58.015625 17.1875 
L 47.609375 17.1875 
L 47.609375 0 
L 37.796875 0 
L 37.796875 17.1875 
L 4.890625 17.1875 
L 4.890625 26.703125 
z
" id="DejaVuSans-34"/>
      </defs>
      <g transform="translate(636.936044 655.398438)scale(0.1 -0.1)">
       <use xlink:href="#DejaVuSans-34"/>
       <use x="63.623047" xlink:href="#DejaVuSans-30"/>
      </g>
     </g>
    </g>
    <g id="xtick_6">
     <g id="line2d_6">
      <g>
       <use style="stroke:#000000;stroke-width:0.8;" x="769.081475" xlink:href="#m9930ce3056" y="640.8"/>
      </g>
     </g>
     <g id="text_6">
      <!-- 50 -->
      <defs>
       <path d="M 10.796875 72.90625 
L 49.515625 72.90625 
L 49.515625 64.59375 
L 19.828125 64.59375 
L 19.828125 46.734375 
Q 21.96875 47.46875 24.109375 47.828125 
Q 26.265625 48.1875 28.421875 48.1875 
Q 40.625 48.1875 47.75 41.5 
Q 54.890625 34.8125 54.890625 23.390625 
Q 54.890625 11.625 47.5625 5.09375 
Q 40.234375 -1.421875 26.90625 -1.421875 
Q 22.3125 -1.421875 17.546875 -0.640625 
Q 12.796875 0.140625 7.71875 1.703125 
L 7.71875 11.625 
Q 12.109375 9.234375 16.796875 8.0625 
Q 21.484375 6.890625 26.703125 6.890625 
Q 35.15625 6.890625 40.078125 11.328125 
Q 45.015625 15.765625 45.015625 23.390625 
Q 45.015625 31 40.078125 35.4375 
Q 35.15625 39.890625 26.703125 39.890625 
Q 22.75 39.890625 18.8125 39.015625 
Q 14.890625 38.140625 10.796875 36.28125 
z
" id="DejaVuSans-35"/>
      </defs>
      <g transform="translate(762.718975 655.398438)scale(0.1 -0.1)">
       <use xlink:href="#DejaVuSans-35"/>
       <use x="63.623047" xlink:href="#DejaVuSans-30"/>
      </g>
     </g>
    </g>
    <g id="text_7">
     <!-- Timestep -->
     <defs>
      <path d="M -0.296875 72.90625 
L 61.375 72.90625 
L 61.375 64.59375 
L 35.5 64.59375 
L 35.5 0 
L 25.59375 0 
L 25.59375 64.59375 
L -0.296875 64.59375 
z
" id="DejaVuSans-54"/>
      <path d="M 9.421875 54.6875 
L 18.40625 54.6875 
L 18.40625 0 
L 9.421875 0 
z
M 9.421875 75.984375 
L 18.40625 75.984375 
L 18.40625 64.59375 
L 9.421875 64.59375 
z
" id="DejaVuSans-69"/>
      <path d="M 52 44.1875 
Q 55.375 50.25 60.0625 53.125 
Q 64.75 56 71.09375 56 
Q 79.640625 56 84.28125 50.015625 
Q 88.921875 44.046875 88.921875 33.015625 
L 88.921875 0 
L 79.890625 0 
L 79.890625 32.71875 
Q 79.890625 40.578125 77.09375 44.375 
Q 74.3125 48.1875 68.609375 48.1875 
Q 61.625 48.1875 57.5625 43.546875 
Q 53.515625 38.921875 53.515625 30.90625 
L 53.515625 0 
L 44.484375 0 
L 44.484375 32.71875 
Q 44.484375 40.625 41.703125 44.40625 
Q 38.921875 48.1875 33.109375 48.1875 
Q 26.21875 48.1875 22.15625 43.53125 
Q 18.109375 38.875 18.109375 30.90625 
L 18.109375 0 
L 9.078125 0 
L 9.078125 54.6875 
L 18.109375 54.6875 
L 18.109375 46.1875 
Q 21.1875 51.21875 25.484375 53.609375 
Q 29.78125 56 35.6875 56 
Q 41.65625 56 45.828125 52.96875 
Q 50 49.953125 52 44.1875 
" id="DejaVuSans-6d"/>
      <path d="M 56.203125 29.59375 
L 56.203125 25.203125 
L 14.890625 25.203125 
Q 15.484375 15.921875 20.484375 11.0625 
Q 25.484375 6.203125 34.421875 6.203125 
Q 39.59375 6.203125 44.453125 7.46875 
Q 49.3125 8.734375 54.109375 11.28125 
L 54.109375 2.78125 
Q 49.265625 0.734375 44.1875 -0.34375 
Q 39.109375 -1.421875 33.890625 -1.421875 
Q 20.796875 -1.421875 13.15625 6.1875 
Q 5.515625 13.8125 5.515625 26.8125 
Q 5.515625 40.234375 12.765625 48.109375 
Q 20.015625 56 32.328125 56 
Q 43.359375 56 49.78125 48.890625 
Q 56.203125 41.796875 56.203125 29.59375 
M 47.21875 32.234375 
Q 47.125 39.59375 43.09375 43.984375 
Q 39.0625 48.390625 32.421875 48.390625 
Q 24.90625 48.390625 20.390625 44.140625 
Q 15.875 39.890625 15.1875 32.171875 
z
" id="DejaVuSans-65"/>
      <path d="M 44.28125 53.078125 
L 44.28125 44.578125 
Q 40.484375 46.53125 36.375 47.5 
Q 32.28125 48.484375 27.875 48.484375 
Q 21.1875 48.484375 17.84375 46.4375 
Q 14.5 44.390625 14.5 40.28125 
Q 14.5 37.15625 16.890625 35.375 
Q 19.28125 33.59375 26.515625 31.984375 
L 29.59375 31.296875 
Q 39.15625 29.25 43.1875 25.515625 
Q 47.21875 21.78125 47.21875 15.09375 
Q 47.21875 7.46875 41.1875 3.015625 
Q 35.15625 -1.421875 24.609375 -1.421875 
Q 20.21875 -1.421875 15.453125 -0.5625 
Q 10.6875 0.296875 5.421875 2 
L 5.421875 11.28125 
Q 10.40625 8.6875 15.234375 7.390625 
Q 20.0625 6.109375 24.8125 6.109375 
Q 31.15625 6.109375 34.5625 8.28125 
Q 37.984375 10.453125 37.984375 14.40625 
Q 37.984375 18.0625 35.515625 20.015625 
Q 33.0625 21.96875 24.703125 23.78125 
L 21.578125 24.515625 
Q 13.234375 26.265625 9.515625 29.90625 
Q 5.8125 33.546875 5.8125 39.890625 
Q 5.8125 47.609375 11.28125 51.796875 
Q 16.75 56 26.8125 56 
Q 31.78125 56 36.171875 55.265625 
Q 40.578125 54.546875 44.28125 53.078125 
" id="DejaVuSans-73"/>
      <path d="M 18.3125 70.21875 
L 18.3125 54.6875 
L 36.8125 54.6875 
L 36.8125 47.703125 
L 18.3125 47.703125 
L 18.3125 18.015625 
Q 18.3125 11.328125 20.140625 9.421875 
Q 21.96875 7.515625 27.59375 7.515625 
L 36.8125 7.515625 
L 36.8125 0 
L 27.59375 0 
Q 17.1875 0 13.234375 3.875 
Q 9.28125 7.765625 9.28125 18.015625 
L 9.28125 47.703125 
L 2.6875 47.703125 
L 2.6875 54.6875 
L 9.28125 54.6875 
L 9.28125 70.21875 
z
" id="DejaVuSans-74"/>
      <path d="M 18.109375 8.203125 
L 18.109375 -20.796875 
L 9.078125 -20.796875 
L 9.078125 54.6875 
L 18.109375 54.6875 
L 18.109375 46.390625 
Q 20.953125 51.265625 25.265625 53.625 
Q 29.59375 56 35.59375 56 
Q 45.5625 56 51.78125 48.09375 
Q 58.015625 40.1875 58.015625 27.296875 
Q 58.015625 14.40625 51.78125 6.484375 
Q 45.5625 -1.421875 35.59375 -1.421875 
Q 29.59375 -1.421875 25.265625 0.953125 
Q 20.953125 3.328125 18.109375 8.203125 
M 48.6875 27.296875 
Q 48.6875 37.203125 44.609375 42.84375 
Q 40.53125 48.484375 33.40625 48.484375 
Q 26.265625 48.484375 22.1875 42.84375 
Q 18.109375 37.203125 18.109375 27.296875 
Q 18.109375 17.390625 22.1875 11.75 
Q 26.265625 6.109375 33.40625 6.109375 
Q 40.53125 6.109375 44.609375 11.75 
Q 48.6875 17.390625 48.6875 27.296875 
" id="DejaVuSans-70"/>
     </defs>
     <g transform="translate(425.131875 669.076563)scale(0.1 -0.1)">
      <use xlink:href="#DejaVuSans-54"/>
      <use x="61.037109" xlink:href="#DejaVuSans-69"/>
      <use x="88.820312" xlink:href="#DejaVuSans-6d"/>
      <use x="186.232422" xlink:href="#DejaVuSans-65"/>
      <use x="247.755859" xlink:href="#DejaVuSans-73"/>
      <use x="299.855469" xlink:href="#DejaVuSans-74"/>
      <use x="339.064453" xlink:href="#DejaVuSans-65"/>
      <use x="400.587891" xlink:href="#DejaVuSans-70"/>
     </g>
    </g>
   </g>
   <g id="matplotlib.axis_2">
    <g id="ytick_1">
     <g id="line2d_7">
      <defs>
       <path d="M 0 0 
L -3.5 0 
" id="m1406b944e8" style="stroke:#000000;stroke-width:0.8;"/>
      </defs>
      <g>
       <use style="stroke:#000000;stroke-width:0.8;" x="109.35" xlink:href="#m1406b944e8" y="636.760726"/>
      </g>
     </g>
     <g id="text_8">
      <!-- 0 -->
      <g transform="translate(95.9875 640.559945)scale(0.1 -0.1)">
       <use xlink:href="#DejaVuSans-30"/>
      </g>
     </g>
    </g>
    <g id="ytick_2">
     <g id="line2d_8">
      <g>
       <use style="stroke:#000000;stroke-width:0.8;" x="109.35" xlink:href="#m1406b944e8" y="526.548611"/>
      </g>
     </g>
     <g id="text_9">
      <!-- 10 -->
      <g transform="translate(89.625 530.34783)scale(0.1 -0.1)">
       <use xlink:href="#DejaVuSans-31"/>
       <use x="63.623047" xlink:href="#DejaVuSans-30"/>
      </g>
     </g>
    </g>
    <g id="ytick_3">
     <g id="line2d_9">
      <g>
       <use style="stroke:#000000;stroke-width:0.8;" x="109.35" xlink:href="#m1406b944e8" y="416.336497"/>
      </g>
     </g>
     <g id="text_10">
      <!-- 20 -->
      <g transform="translate(89.625 420.135716)scale(0.1 -0.1)">
       <use xlink:href="#DejaVuSans-32"/>
       <use x="63.623047" xlink:href="#DejaVuSans-30"/>
      </g>
     </g>
    </g>
    <g id="ytick_4">
     <g id="line2d_10">
      <g>
       <use style="stroke:#000000;stroke-width:0.8;" x="109.35" xlink:href="#m1406b944e8" y="306.124382"/>
      </g>
     </g>
     <g id="text_11">
      <!-- 30 -->
      <g transform="translate(89.625 309.923601)scale(0.1 -0.1)">
       <use xlink:href="#DejaVuSans-33"/>
       <use x="63.623047" xlink:href="#DejaVuSans-30"/>
      </g>
     </g>
    </g>
    <g id="ytick_5">
     <g id="line2d_11">
      <g>
       <use style="stroke:#000000;stroke-width:0.8;" x="109.35" xlink:href="#m1406b944e8" y="195.912268"/>
      </g>
     </g>
     <g id="text_12">
      <!-- 40 -->
      <g transform="translate(89.625 199.711486)scale(0.1 -0.1)">
       <use xlink:href="#DejaVuSans-34"/>
       <use x="63.623047" xlink:href="#DejaVuSans-30"/>
      </g>
     </g>
    </g>
    <g id="text_13">
     <!-- Woody debris colonized -->
     <defs>
      <path d="M 3.328125 72.90625 
L 13.28125 72.90625 
L 28.609375 11.28125 
L 43.890625 72.90625 
L 54.984375 72.90625 
L 70.3125 11.28125 
L 85.59375 72.90625 
L 95.609375 72.90625 
L 77.296875 0 
L 64.890625 0 
L 49.515625 63.28125 
L 33.984375 0 
L 21.578125 0 
z
" id="DejaVuSans-57"/>
      <path d="M 30.609375 48.390625 
Q 23.390625 48.390625 19.1875 42.75 
Q 14.984375 37.109375 14.984375 27.296875 
Q 14.984375 17.484375 19.15625 11.84375 
Q 23.34375 6.203125 30.609375 6.203125 
Q 37.796875 6.203125 41.984375 11.859375 
Q 46.1875 17.53125 46.1875 27.296875 
Q 46.1875 37.015625 41.984375 42.703125 
Q 37.796875 48.390625 30.609375 48.390625 
M 30.609375 56 
Q 42.328125 56 49.015625 48.375 
Q 55.71875 40.765625 55.71875 27.296875 
Q 55.71875 13.875 49.015625 6.21875 
Q 42.328125 -1.421875 30.609375 -1.421875 
Q 18.84375 -1.421875 12.171875 6.21875 
Q 5.515625 13.875 5.515625 27.296875 
Q 5.515625 40.765625 12.171875 48.375 
Q 18.84375 56 30.609375 56 
" id="DejaVuSans-6f"/>
      <path d="M 45.40625 46.390625 
L 45.40625 75.984375 
L 54.390625 75.984375 
L 54.390625 0 
L 45.40625 0 
L 45.40625 8.203125 
Q 42.578125 3.328125 38.25 0.953125 
Q 33.9375 -1.421875 27.875 -1.421875 
Q 17.96875 -1.421875 11.734375 6.484375 
Q 5.515625 14.40625 5.515625 27.296875 
Q 5.515625 40.1875 11.734375 48.09375 
Q 17.96875 56 27.875 56 
Q 33.9375 56 38.25 53.625 
Q 42.578125 51.265625 45.40625 46.390625 
M 14.796875 27.296875 
Q 14.796875 17.390625 18.875 11.75 
Q 22.953125 6.109375 30.078125 6.109375 
Q 37.203125 6.109375 41.296875 11.75 
Q 45.40625 17.390625 45.40625 27.296875 
Q 45.40625 37.203125 41.296875 42.84375 
Q 37.203125 48.484375 30.078125 48.484375 
Q 22.953125 48.484375 18.875 42.84375 
Q 14.796875 37.203125 14.796875 27.296875 
" id="DejaVuSans-64"/>
      <path d="M 32.171875 -5.078125 
Q 28.375 -14.84375 24.75 -17.8125 
Q 21.140625 -20.796875 15.09375 -20.796875 
L 7.90625 -20.796875 
L 7.90625 -13.28125 
L 13.1875 -13.28125 
Q 16.890625 -13.28125 18.9375 -11.515625 
Q 21 -9.765625 23.484375 -3.21875 
L 25.09375 0.875 
L 2.984375 54.6875 
L 12.5 54.6875 
L 29.59375 11.921875 
L 46.6875 54.6875 
L 56.203125 54.6875 
z
" id="DejaVuSans-79"/>
      <path id="DejaVuSans-20"/>
      <path d="M 48.6875 27.296875 
Q 48.6875 37.203125 44.609375 42.84375 
Q 40.53125 48.484375 33.40625 48.484375 
Q 26.265625 48.484375 22.1875 42.84375 
Q 18.109375 37.203125 18.109375 27.296875 
Q 18.109375 17.390625 22.1875 11.75 
Q 26.265625 6.109375 33.40625 6.109375 
Q 40.53125 6.109375 44.609375 11.75 
Q 48.6875 17.390625 48.6875 27.296875 
M 18.109375 46.390625 
Q 20.953125 51.265625 25.265625 53.625 
Q 29.59375 56 35.59375 56 
Q 45.5625 56 51.78125 48.09375 
Q 58.015625 40.1875 58.015625 27.296875 
Q 58.015625 14.40625 51.78125 6.484375 
Q 45.5625 -1.421875 35.59375 -1.421875 
Q 29.59375 -1.421875 25.265625 0.953125 
Q 20.953125 3.328125 18.109375 8.203125 
L 18.109375 0 
L 9.078125 0 
L 9.078125 75.984375 
L 18.109375 75.984375 
z
" id="DejaVuSans-62"/>
      <path d="M 41.109375 46.296875 
Q 39.59375 47.171875 37.8125 47.578125 
Q 36.03125 48 33.890625 48 
Q 26.265625 48 22.1875 43.046875 
Q 18.109375 38.09375 18.109375 28.8125 
L 18.109375 0 
L 9.078125 0 
L 9.078125 54.6875 
L 18.109375 54.6875 
L 18.109375 46.1875 
Q 20.953125 51.171875 25.484375 53.578125 
Q 30.03125 56 36.53125 56 
Q 37.453125 56 38.578125 55.875 
Q 39.703125 55.765625 41.0625 55.515625 
z
" id="DejaVuSans-72"/>
      <path d="M 48.78125 52.59375 
L 48.78125 44.1875 
Q 44.96875 46.296875 41.140625 47.34375 
Q 37.3125 48.390625 33.40625 48.390625 
Q 24.65625 48.390625 19.8125 42.84375 
Q 14.984375 37.3125 14.984375 27.296875 
Q 14.984375 17.28125 19.8125 11.734375 
Q 24.65625 6.203125 33.40625 6.203125 
Q 37.3125 6.203125 41.140625 7.25 
Q 44.96875 8.296875 48.78125 10.40625 
L 48.78125 2.09375 
Q 45.015625 0.34375 40.984375 -0.53125 
Q 36.96875 -1.421875 32.421875 -1.421875 
Q 20.0625 -1.421875 12.78125 6.34375 
Q 5.515625 14.109375 5.515625 27.296875 
Q 5.515625 40.671875 12.859375 48.328125 
Q 20.21875 56 33.015625 56 
Q 37.15625 56 41.109375 55.140625 
Q 45.0625 54.296875 48.78125 52.59375 
" id="DejaVuSans-63"/>
      <path d="M 9.421875 75.984375 
L 18.40625 75.984375 
L 18.40625 0 
L 9.421875 0 
z
" id="DejaVuSans-6c"/>
      <path d="M 54.890625 33.015625 
L 54.890625 0 
L 45.90625 0 
L 45.90625 32.71875 
Q 45.90625 40.484375 42.875 44.328125 
Q 39.84375 48.1875 33.796875 48.1875 
Q 26.515625 48.1875 22.3125 43.546875 
Q 18.109375 38.921875 18.109375 30.90625 
L 18.109375 0 
L 9.078125 0 
L 9.078125 54.6875 
L 18.109375 54.6875 
L 18.109375 46.1875 
Q 21.34375 51.125 25.703125 53.5625 
Q 30.078125 56 35.796875 56 
Q 45.21875 56 50.046875 50.171875 
Q 54.890625 44.34375 54.890625 33.015625 
" id="DejaVuSans-6e"/>
      <path d="M 5.515625 54.6875 
L 48.1875 54.6875 
L 48.1875 46.484375 
L 14.40625 7.171875 
L 48.1875 7.171875 
L 48.1875 0 
L 4.296875 0 
L 4.296875 8.203125 
L 38.09375 47.515625 
L 5.515625 47.515625 
z
" id="DejaVuSans-7a"/>
     </defs>
     <g transform="translate(83.545312 423.134375)rotate(-90)scale(0.1 -0.1)">
      <use xlink:href="#DejaVuSans-57"/>
      <use x="98.798828" xlink:href="#DejaVuSans-6f"/>
      <use x="159.980469" xlink:href="#DejaVuSans-6f"/>
      <use x="221.162109" xlink:href="#DejaVuSans-64"/>
      <use x="284.638672" xlink:href="#DejaVuSans-79"/>
      <use x="343.818359" xlink:href="#DejaVuSans-20"/>
      <use x="375.605469" xlink:href="#DejaVuSans-64"/>
      <use x="439.082031" xlink:href="#DejaVuSans-65"/>
      <use x="500.605469" xlink:href="#DejaVuSans-62"/>
      <use x="564.082031" xlink:href="#DejaVuSans-72"/>
      <use x="605.195312" xlink:href="#DejaVuSans-69"/>
      <use x="632.978516" xlink:href="#DejaVuSans-73"/>
      <use x="685.078125" xlink:href="#DejaVuSans-20"/>
      <use x="716.865234" xlink:href="#DejaVuSans-63"/>
      <use x="771.845703" xlink:href="#DejaVuSans-6f"/>
      <use x="833.027344" xlink:href="#DejaVuSans-6c"/>
      <use x="860.810547" xlink:href="#DejaVuSans-6f"/>
      <use x="921.992188" xlink:href="#DejaVuSans-6e"/>
      <use x="985.371094" xlink:href="#DejaVuSans-69"/>
      <use x="1013.154297" xlink:href="#DejaVuSans-7a"/>
      <use x="1065.644531" xlink:href="#DejaVuSans-65"/>
      <use x="1127.167969" xlink:href="#DejaVuSans-64"/>
     </g>
    </g>
   </g>
   <g id="line2d_12">
    <path clip-path="url(#p731949e0a6)" d="M 140.166818 615.6 
L 152.745111 604.358364 
L 165.323404 604.358364 
L 177.901698 596.533304 
L 190.479991 589.149092 
L 203.058284 579.560639 
L 215.636577 580.883184 
L 228.21487 565.673912 
L 240.793163 555.754822 
L 253.371456 544.292762 
L 265.94975 548.480822 
L 278.528043 535.806429 
L 291.106336 524.344369 
L 303.684629 505.057249 
L 316.262922 512.441461 
L 328.841215 494.256462 
L 341.419508 477.063372 
L 353.997801 458.327312 
L 366.576095 463.176646 
L 379.154388 441.134223 
L 391.732681 423.500284 
L 404.310974 408.1808 
L 416.889267 420.414345 
L 429.46756 406.307194 
L 442.045853 383.052438 
L 454.624147 375.888651 
L 467.20244 389.003892 
L 479.780733 378.092893 
L 492.359026 353.95644 
L 504.937319 344.367986 
L 517.515612 360.569167 
L 530.093905 368.504439 
L 542.672199 350.980713 
L 555.250492 355.278985 
L 567.828785 375.117166 
L 580.407078 381.840105 
L 592.985371 374.235469 
L 605.563664 384.154559 
L 618.141957 407.62974 
L 630.72025 421.516466 
L 643.298544 414.573103 
L 655.876837 422.287951 
L 668.45513 439.481041 
L 681.033423 446.644828 
L 693.611716 443.889525 
L 706.190009 451.824798 
L 718.768302 464.609403 
L 731.346596 468.025979 
L 743.924889 462.405161 
L 756.503182 466.483009 
" style="fill:none;stroke:#000000;stroke-linecap:square;stroke-width:1.5;"/>
   </g>
   <g id="line2d_13">
    <path clip-path="url(#p731949e0a6)" d="M 140.166818 605.129849 
L 152.745111 587.165274 
L 165.323404 587.826547 
L 177.901698 576.805336 
L 190.479991 556.085458 
L 203.058284 535.145156 
L 215.636577 538.45152 
L 228.21487 520.927794 
L 240.793163 488.525432 
L 253.371456 455.57201 
L 265.94975 464.609403 
L 278.528043 443.007829 
L 291.106336 394.404286 
L 303.684629 361.7815 
L 316.262922 376.439711 
L 328.841215 357.152591 
L 341.419508 302.046534 
L 353.997801 271.407566 
L 366.576095 295.984868 
L 379.154388 289.923201 
L 391.732681 251.78981 
L 404.310974 239.666477 
L 416.889267 272.840324 
L 429.46756 282.53899 
L 442.045853 253.112355 
L 454.624147 247.932386 
L 467.20244 282.869626 
L 479.780733 307.997988 
L 492.359026 295.103171 
L 504.937319 295.323595 
L 517.515612 329.709775 
L 530.093905 358.364925 
L 542.672199 355.940258 
L 555.250492 365.749136 
L 567.828785 397.931074 
L 580.407078 426.696436 
L 592.985371 424.712618 
L 605.563664 426.806648 
L 618.141957 447.085677 
L 630.72025 463.176646 
L 643.298544 459.098797 
L 655.876837 456.894555 
L 668.45513 473.205948 
L 681.033423 478.385917 
L 693.611716 467.474918 
L 706.190009 459.649858 
L 718.768302 470.891494 
L 731.346596 471.883403 
L 743.924889 456.12307 
L 756.503182 449.289919 
" style="fill:none;stroke:#000000;stroke-dasharray:5.6,2.4;stroke-dashoffset:0;stroke-width:1.5;"/>
   </g>
   <g id="line2d_14">
    <path clip-path="url(#p731949e0a6)" d="M 140.166818 593.778001 
L 152.745111 570.523245 
L 165.323404 571.184518 
L 177.901698 554.432276 
L 190.479991 505.828734 
L 203.058284 468.797463 
L 215.636577 476.181675 
L 228.21487 450.502252 
L 240.793163 377.762257 
L 253.371456 321.884715 
L 265.94975 341.943319 
L 278.528043 312.296261 
L 291.106336 230.95972 
L 303.684629 178.82939 
L 316.262922 211.452176 
L 328.841215 193.92845 
L 341.419508 134.413908 
L 353.997801 111.6 
L 366.576095 161.305664 
L 379.154388 170.343057 
L 391.732681 142.238968 
L 404.310974 152.26827 
L 416.889267 204.839449 
L 429.46756 242.311568 
L 442.045853 246.60984 
L 454.624147 273.281172 
L 467.20244 318.908988 
L 479.780733 354.066652 
L 492.359026 366.630833 
L 504.937319 384.595408 
L 517.515612 414.242467 
L 530.093905 442.677192 
L 542.672199 446.314192 
L 555.250492 454.359676 
L 567.828785 473.095736 
L 580.407078 489.296917 
L 592.985371 484.116947 
L 605.563664 479.267614 
L 618.141957 487.864159 
L 630.72025 495.909644 
L 643.298544 485.219068 
L 655.876837 472.654887 
L 668.45513 481.582069 
L 681.033423 487.533523 
L 693.611716 472.875312 
L 706.190009 454.690313 
L 718.768302 465.821736 
L 731.346596 471.442554 
L 743.924889 457.225191 
L 756.503182 439.701465 
" style="fill:none;stroke:#000000;stroke-dasharray:2.2,2.2;stroke-dashoffset:0;stroke-width:1.5;"/>
   </g>
   <g id="patch_3">
    <path d="M 109.35 640.8 
L 109.35 86.4 
" style="fill:none;stroke:#000000;stroke-linecap:square;stroke-linejoin:miter;stroke-width:0.8;"/>
   </g>
   <g id="patch_4">
    <path d="M 787.32 640.8 
L 787.32 86.4 
" style="fill:none;stroke:#000000;stroke-linecap:square;stroke-linejoin:miter;stroke-width:0.8;"/>
   </g>
   <g id="patch_5">
    <path d="M 109.35 640.8 
L 787.32 640.8 
" style="fill:none;stroke:#000000;stroke-linecap:square;stroke-linejoin:miter;stroke-width:0.8;"/>
   </g>
   <g id="patch_6">
    <path d="M 109.35 86.4 
L 787.32 86.4 
" style="fill:none;stroke:#000000;stroke-linecap:square;stroke-linejoin:miter;stroke-width:0.8;"/>
   </g>
   <g id="text_14">
    <!-- Initial woody debris -->
    <defs>
     <path d="M 9.8125 72.90625 
L 19.671875 72.90625 
L 19.671875 0 
L 9.8125 0 
z
" id="DejaVuSans-49"/>
     <path d="M 34.28125 27.484375 
Q 23.390625 27.484375 19.1875 25 
Q 14.984375 22.515625 14.984375 16.5 
Q 14.984375 11.71875 18.140625 8.90625 
Q 21.296875 6.109375 26.703125 6.109375 
Q 34.1875 6.109375 38.703125 11.40625 
Q 43.21875 16.703125 43.21875 25.484375 
L 43.21875 27.484375 
z
M 52.203125 31.203125 
L 52.203125 0 
L 43.21875 0 
L 43.21875 8.296875 
Q 40.140625 3.328125 35.546875 0.953125 
Q 30.953125 -1.421875 24.3125 -1.421875 
Q 15.921875 -1.421875 10.953125 3.296875 
Q 6 8.015625 6 15.921875 
Q 6 25.140625 12.171875 29.828125 
Q 18.359375 34.515625 30.609375 34.515625 
L 43.21875 34.515625 
L 43.21875 35.40625 
Q 43.21875 41.609375 39.140625 45 
Q 35.0625 48.390625 27.6875 48.390625 
Q 23 48.390625 18.546875 47.265625 
Q 14.109375 46.140625 10.015625 43.890625 
L 10.015625 52.203125 
Q 14.9375 54.109375 19.578125 55.046875 
Q 24.21875 56 28.609375 56 
Q 40.484375 56 46.34375 49.84375 
Q 52.203125 43.703125 52.203125 31.203125 
" id="DejaVuSans-61"/>
     <path d="M 4.203125 54.6875 
L 13.1875 54.6875 
L 24.421875 12.015625 
L 35.59375 54.6875 
L 46.1875 54.6875 
L 57.421875 12.015625 
L 68.609375 54.6875 
L 77.59375 54.6875 
L 63.28125 0 
L 52.6875 0 
L 40.921875 44.828125 
L 29.109375 0 
L 18.5 0 
z
" id="DejaVuSans-77"/>
    </defs>
    <g transform="translate(389.740313 80.4)scale(0.12 -0.12)">
     <use xlink:href="#DejaVuSans-49"/>
     <use x="29.492188" xlink:href="#DejaVuSans-6e"/>
     <use x="92.871094" xlink:href="#DejaVuSans-69"/>
     <use x="120.654297" xlink:href="#DejaVuSans-74"/>
     <use x="159.863281" xlink:href="#DejaVuSans-69"/>
     <use x="187.646484" xlink:href="#DejaVuSans-61"/>
     <use x="248.925781" xlink:href="#DejaVuSans-6c"/>
     <use x="276.708984" xlink:href="#DejaVuSans-20"/>
     <use x="308.496094" xlink:href="#DejaVuSans-77"/>
     <use x="390.283203" xlink:href="#DejaVuSans-6f"/>
     <use x="451.464844" xlink:href="#DejaVuSans-6f"/>
     <use x="512.646484" xlink:href="#DejaVuSans-64"/>
     <use x="576.123047" xlink:href="#DejaVuSans-79"/>
     <use x="635.302734" xlink:href="#DejaVuSans-20"/>
     <use x="667.089844" xlink:href="#DejaVuSans-64"/>
     <use x="730.566406" xlink:href="#DejaVuSans-65"/>
     <use x="792.089844" xlink:href="#DejaVuSans-62"/>
     <use x="855.566406" xlink:href="#DejaVuSans-72"/>
     <use x="896.679688" xlink:href="#DejaVuSans-69"/>
     <use x="924.462891" xlink:href="#DejaVuSans-73"/>
    </g>
   </g>
   <g id="legend_1">
    <g id="patch_7">
     <path d="M 631.404375 138.434375 
L 780.32 138.434375 
Q 782.32 138.434375 782.32 136.434375 
L 782.32 93.4 
Q 782.32 91.4 780.32 91.4 
L 631.404375 91.4 
Q 629.404375 91.4 629.404375 93.4 
L 629.404375 136.434375 
Q 629.404375 138.434375 631.404375 138.434375 
z
" style="fill:#ffffff;opacity:0.8;stroke:#cccccc;stroke-linejoin:miter;"/>
    </g>
    <g id="line2d_15">
     <path d="M 633.404375 99.498437 
L 653.404375 99.498437 
" style="fill:none;stroke:#000000;stroke-linecap:square;stroke-width:1.5;"/>
    </g>
    <g id="line2d_16"/>
    <g id="text_15">
     <!-- Initial wood energy=20 -->
     <defs>
      <path d="M 45.40625 27.984375 
Q 45.40625 37.75 41.375 43.109375 
Q 37.359375 48.484375 30.078125 48.484375 
Q 22.859375 48.484375 18.828125 43.109375 
Q 14.796875 37.75 14.796875 27.984375 
Q 14.796875 18.265625 18.828125 12.890625 
Q 22.859375 7.515625 30.078125 7.515625 
Q 37.359375 7.515625 41.375 12.890625 
Q 45.40625 18.265625 45.40625 27.984375 
M 54.390625 6.78125 
Q 54.390625 -7.171875 48.1875 -13.984375 
Q 42 -20.796875 29.203125 -20.796875 
Q 24.46875 -20.796875 20.265625 -20.09375 
Q 16.0625 -19.390625 12.109375 -17.921875 
L 12.109375 -9.1875 
Q 16.0625 -11.328125 19.921875 -12.34375 
Q 23.78125 -13.375 27.78125 -13.375 
Q 36.625 -13.375 41.015625 -8.765625 
Q 45.40625 -4.15625 45.40625 5.171875 
L 45.40625 9.625 
Q 42.625 4.78125 38.28125 2.390625 
Q 33.9375 0 27.875 0 
Q 17.828125 0 11.671875 7.65625 
Q 5.515625 15.328125 5.515625 27.984375 
Q 5.515625 40.671875 11.671875 48.328125 
Q 17.828125 56 27.875 56 
Q 33.9375 56 38.28125 53.609375 
Q 42.625 51.21875 45.40625 46.390625 
L 45.40625 54.6875 
L 54.390625 54.6875 
z
" id="DejaVuSans-67"/>
      <path d="M 10.59375 45.40625 
L 73.1875 45.40625 
L 73.1875 37.203125 
L 10.59375 37.203125 
z
M 10.59375 25.484375 
L 73.1875 25.484375 
L 73.1875 17.1875 
L 10.59375 17.1875 
z
" id="DejaVuSans-3d"/>
     </defs>
     <g transform="translate(661.404375 102.998437)scale(0.1 -0.1)">
      <use xlink:href="#DejaVuSans-49"/>
      <use x="29.492188" xlink:href="#DejaVuSans-6e"/>
      <use x="92.871094" xlink:href="#DejaVuSans-69"/>
      <use x="120.654297" xlink:href="#DejaVuSans-74"/>
      <use x="159.863281" xlink:href="#DejaVuSans-69"/>
      <use x="187.646484" xlink:href="#DejaVuSans-61"/>
      <use x="248.925781" xlink:href="#DejaVuSans-6c"/>
      <use x="276.708984" xlink:href="#DejaVuSans-20"/>
      <use x="308.496094" xlink:href="#DejaVuSans-77"/>
      <use x="390.283203" xlink:href="#DejaVuSans-6f"/>
      <use x="451.464844" xlink:href="#DejaVuSans-6f"/>
      <use x="512.646484" xlink:href="#DejaVuSans-64"/>
      <use x="576.123047" xlink:href="#DejaVuSans-20"/>
      <use x="607.910156" xlink:href="#DejaVuSans-65"/>
      <use x="669.433594" xlink:href="#DejaVuSans-6e"/>
      <use x="732.8125" xlink:href="#DejaVuSans-65"/>
      <use x="794.335938" xlink:href="#DejaVuSans-72"/>
      <use x="835.433594" xlink:href="#DejaVuSans-67"/>
      <use x="898.910156" xlink:href="#DejaVuSans-79"/>
      <use x="958.089844" xlink:href="#DejaVuSans-3d"/>
      <use x="1041.878906" xlink:href="#DejaVuSans-32"/>
      <use x="1105.501953" xlink:href="#DejaVuSans-30"/>
     </g>
    </g>
    <g id="line2d_17">
     <path d="M 633.404375 114.176562 
L 653.404375 114.176562 
" style="fill:none;stroke:#000000;stroke-dasharray:5.6,2.4;stroke-dashoffset:0;stroke-width:1.5;"/>
    </g>
    <g id="line2d_18"/>
    <g id="text_16">
     <!-- Initial wood energy=40 -->
     <g transform="translate(661.404375 117.676562)scale(0.1 -0.1)">
      <use xlink:href="#DejaVuSans-49"/>
      <use x="29.492188" xlink:href="#DejaVuSans-6e"/>
      <use x="92.871094" xlink:href="#DejaVuSans-69"/>
      <use x="120.654297" xlink:href="#DejaVuSans-74"/>
      <use x="159.863281" xlink:href="#DejaVuSans-69"/>
      <use x="187.646484" xlink:href="#DejaVuSans-61"/>
      <use x="248.925781" xlink:href="#DejaVuSans-6c"/>
      <use x="276.708984" xlink:href="#DejaVuSans-20"/>
      <use x="308.496094" xlink:href="#DejaVuSans-77"/>
      <use x="390.283203" xlink:href="#DejaVuSans-6f"/>
      <use x="451.464844" xlink:href="#DejaVuSans-6f"/>
      <use x="512.646484" xlink:href="#DejaVuSans-64"/>
      <use x="576.123047" xlink:href="#DejaVuSans-20"/>
      <use x="607.910156" xlink:href="#DejaVuSans-65"/>
      <use x="669.433594" xlink:href="#DejaVuSans-6e"/>
      <use x="732.8125" xlink:href="#DejaVuSans-65"/>
      <use x="794.335938" xlink:href="#DejaVuSans-72"/>
      <use x="835.433594" xlink:href="#DejaVuSans-67"/>
      <use x="898.910156" xlink:href="#DejaVuSans-79"/>
      <use x="958.089844" xlink:href="#DejaVuSans-3d"/>
      <use x="1041.878906" xlink:href="#DejaVuSans-34"/>
      <use x="1105.501953" xlink:href="#DejaVuSans-30"/>
     </g>
    </g>
    <g id="line2d_19">
     <path d="M 633.404375 128.854687 
L 653.404375 128.854687 
" style="fill:none;stroke:#000000;stroke-dasharray:2.2,2.2;stroke-dashoffset:0;stroke-width:1.5;"/>
    </g>
    <g id="line2d_20"/>
    <g id="text_17">
     <!-- Initial wood energy=60 -->
     <defs>
      <path d="M 33.015625 40.375 
Q 26.375 40.375 22.484375 35.828125 
Q 18.609375 31.296875 18.609375 23.390625 
Q 18.609375 15.53125 22.484375 10.953125 
Q 26.375 6.390625 33.015625 6.390625 
Q 39.65625 6.390625 43.53125 10.953125 
Q 47.40625 15.53125 47.40625 23.390625 
Q 47.40625 31.296875 43.53125 35.828125 
Q 39.65625 40.375 33.015625 40.375 
M 52.59375 71.296875 
L 52.59375 62.3125 
Q 48.875 64.0625 45.09375 64.984375 
Q 41.3125 65.921875 37.59375 65.921875 
Q 27.828125 65.921875 22.671875 59.328125 
Q 17.53125 52.734375 16.796875 39.40625 
Q 19.671875 43.65625 24.015625 45.921875 
Q 28.375 48.1875 33.59375 48.1875 
Q 44.578125 48.1875 50.953125 41.515625 
Q 57.328125 34.859375 57.328125 23.390625 
Q 57.328125 12.15625 50.6875 5.359375 
Q 44.046875 -1.421875 33.015625 -1.421875 
Q 20.359375 -1.421875 13.671875 8.265625 
Q 6.984375 17.96875 6.984375 36.375 
Q 6.984375 53.65625 15.1875 63.9375 
Q 23.390625 74.21875 37.203125 74.21875 
Q 40.921875 74.21875 44.703125 73.484375 
Q 48.484375 72.75 52.59375 71.296875 
" id="DejaVuSans-36"/>
     </defs>
     <g transform="translate(661.404375 132.354687)scale(0.1 -0.1)">
      <use xlink:href="#DejaVuSans-49"/>
      <use x="29.492188" xlink:href="#DejaVuSans-6e"/>
      <use x="92.871094" xlink:href="#DejaVuSans-69"/>
      <use x="120.654297" xlink:href="#DejaVuSans-74"/>
      <use x="159.863281" xlink:href="#DejaVuSans-69"/>
      <use x="187.646484" xlink:href="#DejaVuSans-61"/>
      <use x="248.925781" xlink:href="#DejaVuSans-6c"/>
      <use x="276.708984" xlink:href="#DejaVuSans-20"/>
      <use x="308.496094" xlink:href="#DejaVuSans-77"/>
      <use x="390.283203" xlink:href="#DejaVuSans-6f"/>
      <use x="451.464844" xlink:href="#DejaVuSans-6f"/>
      <use x="512.646484" xlink:href="#DejaVuSans-64"/>
      <use x="576.123047" xlink:href="#DejaVuSans-20"/>
      <use x="607.910156" xlink:href="#DejaVuSans-65"/>
      <use x="669.433594" xlink:href="#DejaVuSans-6e"/>
      <use x="732.8125" xlink:href="#DejaVuSans-65"/>
      <use x="794.335938" xlink:href="#DejaVuSans-72"/>
      <use x="835.433594" xlink:href="#DejaVuSans-67"/>
      <use x="898.910156" xlink:href="#DejaVuSans-79"/>
      <use x="958.089844" xlink:href="#DejaVuSans-3d"/>
      <use x="1041.878906" xlink:href="#DejaVuSans-36"/>
      <use x="1105.501953" xlink:href="#DejaVuSans-30"/>
     </g>
    </g>
   </g>
  </g>
 </g>
 <defs>
  <clipPath id="p731949e0a6">
   <rect height="554.4" width="677.97" x="109.35" y="86.4"/>
  </clipPath>
 </defs>
</svg>
