<?xml version="1.0" encoding="utf-8" standalone="no"?>
<!DOCTYPE svg PUBLIC "-//W3C//DTD SVG 1.1//EN"
  "http://www.w3.org/Graphics/SVG/1.1/DTD/svg11.dtd">
<!-- Created with matplotlib (http://matplotlib.org/) -->
<svg height="1080pt" version="1.1" viewBox="0 0 1800 1080" width="1800pt" xmlns="http://www.w3.org/2000/svg" xmlns:xlink="http://www.w3.org/1999/xlink">
 <defs>
  <style type="text/css">
*{stroke-linecap:butt;stroke-linejoin:round;}
  </style>
 </defs>
 <g id="figure_1">
  <g id="patch_1">
   <path d="M 0 1080 
L 1800 1080 
L 1800 0 
L 0 0 
z
" style="fill:#ffffff;"/>
  </g>
  <g id="axes_1">
   <g id="patch_2">
    <path d="M 225 945 
L 1620 945 
L 1620 129.6 
L 225 129.6 
z
" style="fill:#ffffff;"/>
   </g>
   <g id="PolyCollection_1">
    <path clip-path="url(#pbab71a2abb)" d="M 288.409091 925.717934 
L 288.409091 883.068226 
L 301.219008 850.219803 
L 314.028926 852.023499 
L 326.838843 827.774997 
L 339.64876 787.481204 
L 352.458678 767.342725 
L 365.268595 774.200437 
L 378.078512 749.934771 
L 390.88843 694.21795 
L 403.698347 653.578895 
L 416.508264 669.553127 
L 429.318182 635.903501 
L 442.128099 559.118583 
L 454.938017 516.452095 
L 467.747934 541.578898 
L 480.557851 508.248158 
L 493.367769 447.799549 
L 506.177686 425.689146 
L 518.987603 468.070926 
L 531.797521 463.465874 
L 544.607438 408.328037 
L 557.417355 386.327741 
L 570.227273 434.798104 
L 583.03719 427.63094 
L 595.847107 402.481784 
L 608.657025 385.589359 
L 621.466942 423.719997 
L 634.27686 429.541314 
L 647.086777 414.470761 
L 659.896694 426.991133 
L 672.706612 466.020953 
L 685.516529 478.832907 
L 698.326446 466.815615 
L 711.136364 493.396721 
L 723.946281 537.378995 
L 736.756198 559.851862 
L 749.566116 557.628441 
L 762.376033 568.761611 
L 775.18595 602.207549 
L 787.995868 635.972249 
L 800.805785 642.151197 
L 813.615702 625.056912 
L 826.42562 643.122687 
L 839.235537 672.568746 
L 852.045455 664.843459 
L 864.855372 650.187027 
L 877.665289 668.345392 
L 890.475207 682.935067 
L 903.285124 660.22151 
L 916.095041 639.964065 
L 928.904959 654.018359 
L 941.714876 672.864025 
L 954.524793 667.889903 
L 967.334711 661.202892 
L 980.144628 668.878259 
L 992.954545 679.8182 
L 1005.764463 682.183733 
L 1018.57438 662.525124 
L 1031.384298 669.001244 
L 1044.194215 662.118599 
L 1057.004132 653.293095 
L 1069.81405 636.664008 
L 1082.623967 639.921439 
L 1095.433884 639.247566 
L 1108.243802 636.866759 
L 1121.053719 623.266491 
L 1133.863636 624.728557 
L 1146.673554 612.085479 
L 1159.483471 606.340276 
L 1172.293388 604.23432 
L 1185.103306 602.447308 
L 1197.913223 611.165394 
L 1210.72314 623.028964 
L 1223.533058 629.574172 
L 1236.342975 629.355635 
L 1249.152893 650.043352 
L 1261.96281 651.084064 
L 1274.772727 639.076832 
L 1287.582645 643.526324 
L 1300.392562 653.793816 
L 1313.202479 648.497537 
L 1326.012397 630.66651 
L 1338.822314 641.30439 
L 1351.632231 659.425372 
L 1364.442149 666.103521 
L 1377.252066 669.787565 
L 1390.061983 679.876146 
L 1402.871901 688.67026 
L 1415.681818 680.968486 
L 1428.491736 691.422384 
L 1441.301653 692.463236 
L 1454.11157 690.287077 
L 1466.921488 680.137787 
L 1479.731405 683.477805 
L 1492.541322 681.817386 
L 1505.35124 677.75506 
L 1518.161157 663.046472 
L 1530.971074 674.982091 
L 1543.780992 680.410649 
L 1556.590909 670.581098 
L 1556.590909 945 
L 1556.590909 945 
L 1543.780992 945 
L 1530.971074 945 
L 1518.161157 945 
L 1505.35124 945 
L 1492.541322 945 
L 1479.731405 945 
L 1466.921488 945 
L 1454.11157 945 
L 1441.301653 945 
L 1428.491736 945 
L 1415.681818 945 
L 1402.871901 945 
L 1390.061983 945 
L 1377.252066 945 
L 1364.442149 945 
L 1351.632231 945 
L 1338.822314 945 
L 1326.012397 945 
L 1313.202479 945 
L 1300.392562 945 
L 1287.582645 945 
L 1274.772727 945 
L 1261.96281 945 
L 1249.152893 945 
L 1236.342975 945 
L 1223.533058 945 
L 1210.72314 945 
L 1197.913223 945 
L 1185.103306 945 
L 1172.293388 945 
L 1159.483471 945 
L 1146.673554 945 
L 1133.863636 945 
L 1121.053719 945 
L 1108.243802 945 
L 1095.433884 945 
L 1082.623967 945 
L 1069.81405 945 
L 1057.004132 945 
L 1044.194215 945 
L 1031.384298 945 
L 1018.57438 945 
L 1005.764463 945 
L 992.954545 945 
L 980.144628 945 
L 967.334711 945 
L 954.524793 945 
L 941.714876 945 
L 928.904959 945 
L 916.095041 945 
L 903.285124 945 
L 890.475207 941.570693 
L 877.665289 942.135488 
L 864.855372 936.484173 
L 852.045455 932.591021 
L 839.235537 928.127334 
L 826.42562 929.849793 
L 813.615702 922.148928 
L 800.805785 915.491763 
L 787.995868 915.473671 
L 775.18595 913.360771 
L 762.376033 906.689029 
L 749.566116 907.058919 
L 736.756198 902.878538 
L 723.946281 890.126125 
L 711.136364 887.467519 
L 698.326446 888.281985 
L 685.516529 878.221653 
L 672.706612 854.177527 
L 659.896694 834.824707 
L 647.086777 835.603319 
L 634.27686 830.643726 
L 621.466942 817.547763 
L 608.657025 800.883521 
L 595.847107 796.385176 
L 583.03719 798.63346 
L 570.227273 798.967976 
L 557.417355 791.012659 
L 544.607438 807.499243 
L 531.797521 815.962606 
L 518.987603 826.360914 
L 506.177686 817.209414 
L 493.367769 836.195171 
L 480.557851 855.329602 
L 467.747934 867.661262 
L 454.938017 861.802865 
L 442.128099 866.103417 
L 429.318182 877.055539 
L 416.508264 887.763673 
L 403.698347 886.451425 
L 390.88843 891.80093 
L 378.078512 898.054509 
L 365.268595 907.709483 
L 352.458678 905.108555 
L 339.64876 910.084396 
L 326.838843 911.539083 
L 314.028926 915.666501 
L 301.219008 915.187077 
L 288.409091 925.717934 
z
" style="fill:#ff0000;fill-opacity:0.3;"/>
   </g>
   <g id="PolyCollection_2">
    <path clip-path="url(#pbab71a2abb)" d="M 288.409091 933.517937 
L 288.409091 912.776623 
L 301.219008 898.426036 
L 314.028926 889.899879 
L 326.838843 881.33318 
L 339.64876 868.045661 
L 352.458678 851.20183 
L 365.268595 841.662493 
L 378.078512 837.574954 
L 390.88843 813.567016 
L 403.698347 800.652209 
L 416.508264 787.438296 
L 429.318182 776.118954 
L 442.128099 761.777823 
L 454.938017 756.345576 
L 467.747934 745.674823 
L 480.557851 741.648434 
L 493.367769 727.270508 
L 506.177686 698.774504 
L 518.987603 694.026348 
L 531.797521 689.136332 
L 544.607438 685.062454 
L 557.417355 683.687243 
L 570.227273 684.330315 
L 583.03719 676.630331 
L 595.847107 665.143534 
L 608.657025 663.349461 
L 621.466942 667.064979 
L 634.27686 653.661065 
L 647.086777 658.625381 
L 659.896694 661.256011 
L 672.706612 662.552243 
L 685.516529 656.821276 
L 698.326446 657.364608 
L 711.136364 661.391359 
L 723.946281 662.745046 
L 736.756198 672.270798 
L 749.566116 674.955678 
L 762.376033 667.705829 
L 775.18595 656.608252 
L 787.995868 648.116106 
L 800.805785 628.423437 
L 813.615702 620.663764 
L 826.42562 616.447242 
L 839.235537 612.904946 
L 852.045455 595.389394 
L 864.855372 575.680743 
L 877.665289 567.90093 
L 890.475207 569.279908 
L 903.285124 567.304011 
L 916.095041 567.814239 
L 928.904959 584.085687 
L 941.714876 601.457118 
L 954.524793 616.21011 
L 967.334711 627.054296 
L 980.144628 639.140212 
L 992.954545 645.41902 
L 1005.764463 645.152048 
L 1018.57438 645.597171 
L 1031.384298 646.450281 
L 1044.194215 637.532093 
L 1057.004132 639.09511 
L 1069.81405 643.727383 
L 1082.623967 642.153905 
L 1095.433884 650.678629 
L 1108.243802 652.623537 
L 1121.053719 648.080635 
L 1133.863636 632.073594 
L 1146.673554 621.169477 
L 1159.483471 611.798844 
L 1172.293388 602.387112 
L 1185.103306 593.922089 
L 1197.913223 601.402703 
L 1210.72314 601.548214 
L 1223.533058 609.980406 
L 1236.342975 618.045216 
L 1249.152893 612.321208 
L 1261.96281 619.266641 
L 1274.772727 613.991979 
L 1287.582645 623.293784 
L 1300.392562 613.720311 
L 1313.202479 602.761933 
L 1326.012397 599.886267 
L 1338.822314 601.862515 
L 1351.632231 614.99631 
L 1364.442149 623.148773 
L 1377.252066 632.663059 
L 1390.061983 635.615023 
L 1402.871901 624.894371 
L 1415.681818 621.251946 
L 1428.491736 621.287801 
L 1441.301653 617.423705 
L 1454.11157 621.670152 
L 1466.921488 625.578298 
L 1479.731405 621.325363 
L 1492.541322 624.189348 
L 1505.35124 620.497737 
L 1518.161157 614.451901 
L 1530.971074 617.9045 
L 1543.780992 615.448736 
L 1556.590909 611.610985 
L 1556.590909 902.000375 
L 1556.590909 902.000375 
L 1543.780992 902.728864 
L 1530.971074 907.44862 
L 1518.161157 912.858179 
L 1505.35124 908.769303 
L 1492.541322 906.708492 
L 1479.731405 909.898637 
L 1466.921488 908.254982 
L 1454.11157 909.227688 
L 1441.301653 903.363175 
L 1428.491736 903.739159 
L 1415.681818 903.122694 
L 1402.871901 897.197149 
L 1390.061983 892.999697 
L 1377.252066 895.625501 
L 1364.442149 897.964267 
L 1351.632231 898.94121 
L 1338.822314 899.354765 
L 1326.012397 899.047893 
L 1313.202479 897.476867 
L 1300.392562 893.367849 
L 1287.582645 890.643736 
L 1274.772727 890.813061 
L 1261.96281 897.606319 
L 1249.152893 901.942472 
L 1236.342975 908.286384 
L 1223.533058 906.566394 
L 1210.72314 902.278346 
L 1197.913223 898.509937 
L 1185.103306 901.098151 
L 1172.293388 896.220888 
L 1159.483471 899.855556 
L 1146.673554 899.943563 
L 1133.863636 897.845766 
L 1121.053719 898.799045 
L 1108.243802 895.234623 
L 1095.433884 897.505691 
L 1082.623967 898.528735 
L 1069.81405 898.259897 
L 1057.004132 900.28289 
L 1044.194215 906.085987 
L 1031.384298 909.888039 
L 1018.57438 910.414989 
L 1005.764463 916.404832 
L 992.954545 918.42098 
L 980.144628 923.721308 
L 967.334711 932.219464 
L 954.524793 938.82357 
L 941.714876 945 
L 928.904959 945 
L 916.095041 945 
L 903.285124 945 
L 890.475207 945 
L 877.665289 945 
L 864.855372 945 
L 852.045455 945 
L 839.235537 945 
L 826.42562 945 
L 813.615702 945 
L 800.805785 944.549043 
L 787.995868 936.924294 
L 775.18595 929.410628 
L 762.376033 927.445531 
L 749.566116 921.826482 
L 736.756198 922.880562 
L 723.946281 925.556954 
L 711.136364 931.150721 
L 698.326446 932.242032 
L 685.516529 934.742324 
L 672.706612 936.186877 
L 659.896694 937.483109 
L 647.086777 935.873659 
L 634.27686 937.902535 
L 621.466942 931.347981 
L 608.657025 932.128059 
L 595.847107 936.204866 
L 583.03719 940.699909 
L 570.227273 939.196965 
L 557.417355 942.449317 
L 544.607438 942.704906 
L 531.797521 944.501908 
L 518.987603 944.830452 
L 506.177686 945 
L 493.367769 942.245332 
L 480.557851 941.239966 
L 467.747934 945 
L 454.938017 945 
L 442.128099 945 
L 429.318182 945 
L 416.508264 945 
L 403.698347 945 
L 390.88843 942.381224 
L 378.078512 933.376646 
L 365.268595 928.310627 
L 352.458678 924.64217 
L 339.64876 922.801699 
L 326.838843 925.16986 
L 314.028926 928.018761 
L 301.219008 932.539004 
L 288.409091 933.517937 
z
" style="fill:#0000ff;fill-opacity:0.3;"/>
   </g>
   <g id="matplotlib.axis_1">
    <g id="xtick_1">
     <g id="line2d_1">
      <defs>
       <path d="M 0 0 
L 0 3.5 
" id="m5a6e6087fe" style="stroke:#000000;stroke-width:0.8;"/>
      </defs>
      <g>
       <use style="stroke:#000000;stroke-width:0.8;" x="288.409091" xlink:href="#m5a6e6087fe" y="945"/>
      </g>
     </g>
     <g id="text_1">
      <!-- 0 -->
      <defs>
       <path d="M 31.78125 66.40625 
Q 24.171875 66.40625 20.328125 58.90625 
Q 16.5 51.421875 16.5 36.375 
Q 16.5 21.390625 20.328125 13.890625 
Q 24.171875 6.390625 31.78125 6.390625 
Q 39.453125 6.390625 43.28125 13.890625 
Q 47.125 21.390625 47.125 36.375 
Q 47.125 51.421875 43.28125 58.90625 
Q 39.453125 66.40625 31.78125 66.40625 
M 31.78125 74.21875 
Q 44.046875 74.21875 50.515625 64.515625 
Q 56.984375 54.828125 56.984375 36.375 
Q 56.984375 17.96875 50.515625 8.265625 
Q 44.046875 -1.421875 31.78125 -1.421875 
Q 19.53125 -1.421875 13.0625 8.265625 
Q 6.59375 17.96875 6.59375 36.375 
Q 6.59375 54.828125 13.0625 64.515625 
Q 19.53125 74.21875 31.78125 74.21875 
" id="DejaVuSans-30"/>
      </defs>
      <g transform="translate(283.637216 963.397656)scale(0.15 -0.15)">
       <use xlink:href="#DejaVuSans-30"/>
      </g>
     </g>
    </g>
    <g id="xtick_2">
     <g id="line2d_2">
      <g>
       <use style="stroke:#000000;stroke-width:0.8;" x="544.607438" xlink:href="#m5a6e6087fe" y="945"/>
      </g>
     </g>
     <g id="text_2">
      <!-- 20 -->
      <defs>
       <path d="M 19.1875 8.296875 
L 53.609375 8.296875 
L 53.609375 0 
L 7.328125 0 
L 7.328125 8.296875 
Q 12.9375 14.109375 22.625 23.890625 
Q 32.328125 33.6875 34.8125 36.53125 
Q 39.546875 41.84375 41.421875 45.53125 
Q 43.3125 49.21875 43.3125 52.78125 
Q 43.3125 58.59375 39.234375 62.25 
Q 35.15625 65.921875 28.609375 65.921875 
Q 23.96875 65.921875 18.8125 64.3125 
Q 13.671875 62.703125 7.8125 59.421875 
L 7.8125 69.390625 
Q 13.765625 71.78125 18.9375 73 
Q 24.125 74.21875 28.421875 74.21875 
Q 39.75 74.21875 46.484375 68.546875 
Q 53.21875 62.890625 53.21875 53.421875 
Q 53.21875 48.921875 51.53125 44.890625 
Q 49.859375 40.875 45.40625 35.40625 
Q 44.1875 33.984375 37.640625 27.21875 
Q 31.109375 20.453125 19.1875 8.296875 
" id="DejaVuSans-32"/>
      </defs>
      <g transform="translate(535.063688 963.397656)scale(0.15 -0.15)">
       <use xlink:href="#DejaVuSans-32"/>
       <use x="63.623047" xlink:href="#DejaVuSans-30"/>
      </g>
     </g>
    </g>
    <g id="xtick_3">
     <g id="line2d_3">
      <g>
       <use style="stroke:#000000;stroke-width:0.8;" x="800.805785" xlink:href="#m5a6e6087fe" y="945"/>
      </g>
     </g>
     <g id="text_3">
      <!-- 40 -->
      <defs>
       <path d="M 37.796875 64.3125 
L 12.890625 25.390625 
L 37.796875 25.390625 
z
M 35.203125 72.90625 
L 47.609375 72.90625 
L 47.609375 25.390625 
L 58.015625 25.390625 
L 58.015625 17.1875 
L 47.609375 17.1875 
L 47.609375 0 
L 37.796875 0 
L 37.796875 17.1875 
L 4.890625 17.1875 
L 4.890625 26.703125 
z
" id="DejaVuSans-34"/>
      </defs>
      <g transform="translate(791.262035 963.397656)scale(0.15 -0.15)">
       <use xlink:href="#DejaVuSans-34"/>
       <use x="63.623047" xlink:href="#DejaVuSans-30"/>
      </g>
     </g>
    </g>
    <g id="xtick_4">
     <g id="line2d_4">
      <g>
       <use style="stroke:#000000;stroke-width:0.8;" x="1057.004132" xlink:href="#m5a6e6087fe" y="945"/>
      </g>
     </g>
     <g id="text_4">
      <!-- 60 -->
      <defs>
       <path d="M 33.015625 40.375 
Q 26.375 40.375 22.484375 35.828125 
Q 18.609375 31.296875 18.609375 23.390625 
Q 18.609375 15.53125 22.484375 10.953125 
Q 26.375 6.390625 33.015625 6.390625 
Q 39.65625 6.390625 43.53125 10.953125 
Q 47.40625 15.53125 47.40625 23.390625 
Q 47.40625 31.296875 43.53125 35.828125 
Q 39.65625 40.375 33.015625 40.375 
M 52.59375 71.296875 
L 52.59375 62.3125 
Q 48.875 64.0625 45.09375 64.984375 
Q 41.3125 65.921875 37.59375 65.921875 
Q 27.828125 65.921875 22.671875 59.328125 
Q 17.53125 52.734375 16.796875 39.40625 
Q 19.671875 43.65625 24.015625 45.921875 
Q 28.375 48.1875 33.59375 48.1875 
Q 44.578125 48.1875 50.953125 41.515625 
Q 57.328125 34.859375 57.328125 23.390625 
Q 57.328125 12.15625 50.6875 5.359375 
Q 44.046875 -1.421875 33.015625 -1.421875 
Q 20.359375 -1.421875 13.671875 8.265625 
Q 6.984375 17.96875 6.984375 36.375 
Q 6.984375 53.65625 15.1875 63.9375 
Q 23.390625 74.21875 37.203125 74.21875 
Q 40.921875 74.21875 44.703125 73.484375 
Q 48.484375 72.75 52.59375 71.296875 
" id="DejaVuSans-36"/>
      </defs>
      <g transform="translate(1047.460382 963.397656)scale(0.15 -0.15)">
       <use xlink:href="#DejaVuSans-36"/>
       <use x="63.623047" xlink:href="#DejaVuSans-30"/>
      </g>
     </g>
    </g>
    <g id="xtick_5">
     <g id="line2d_5">
      <g>
       <use style="stroke:#000000;stroke-width:0.8;" x="1313.202479" xlink:href="#m5a6e6087fe" y="945"/>
      </g>
     </g>
     <g id="text_5">
      <!-- 80 -->
      <defs>
       <path d="M 31.78125 34.625 
Q 24.75 34.625 20.71875 30.859375 
Q 16.703125 27.09375 16.703125 20.515625 
Q 16.703125 13.921875 20.71875 10.15625 
Q 24.75 6.390625 31.78125 6.390625 
Q 38.8125 6.390625 42.859375 10.171875 
Q 46.921875 13.96875 46.921875 20.515625 
Q 46.921875 27.09375 42.890625 30.859375 
Q 38.875 34.625 31.78125 34.625 
M 21.921875 38.8125 
Q 15.578125 40.375 12.03125 44.71875 
Q 8.5 49.078125 8.5 55.328125 
Q 8.5 64.0625 14.71875 69.140625 
Q 20.953125 74.21875 31.78125 74.21875 
Q 42.671875 74.21875 48.875 69.140625 
Q 55.078125 64.0625 55.078125 55.328125 
Q 55.078125 49.078125 51.53125 44.71875 
Q 48 40.375 41.703125 38.8125 
Q 48.828125 37.15625 52.796875 32.3125 
Q 56.78125 27.484375 56.78125 20.515625 
Q 56.78125 9.90625 50.3125 4.234375 
Q 43.84375 -1.421875 31.78125 -1.421875 
Q 19.734375 -1.421875 13.25 4.234375 
Q 6.78125 9.90625 6.78125 20.515625 
Q 6.78125 27.484375 10.78125 32.3125 
Q 14.796875 37.15625 21.921875 38.8125 
M 18.3125 54.390625 
Q 18.3125 48.734375 21.84375 45.5625 
Q 25.390625 42.390625 31.78125 42.390625 
Q 38.140625 42.390625 41.71875 45.5625 
Q 45.3125 48.734375 45.3125 54.390625 
Q 45.3125 60.0625 41.71875 63.234375 
Q 38.140625 66.40625 31.78125 66.40625 
Q 25.390625 66.40625 21.84375 63.234375 
Q 18.3125 60.0625 18.3125 54.390625 
" id="DejaVuSans-38"/>
      </defs>
      <g transform="translate(1303.658729 963.397656)scale(0.15 -0.15)">
       <use xlink:href="#DejaVuSans-38"/>
       <use x="63.623047" xlink:href="#DejaVuSans-30"/>
      </g>
     </g>
    </g>
    <g id="xtick_6">
     <g id="line2d_6">
      <g>
       <use style="stroke:#000000;stroke-width:0.8;" x="1569.400826" xlink:href="#m5a6e6087fe" y="945"/>
      </g>
     </g>
     <g id="text_6">
      <!-- 100 -->
      <defs>
       <path d="M 12.40625 8.296875 
L 28.515625 8.296875 
L 28.515625 63.921875 
L 10.984375 60.40625 
L 10.984375 69.390625 
L 28.421875 72.90625 
L 38.28125 72.90625 
L 38.28125 8.296875 
L 54.390625 8.296875 
L 54.390625 0 
L 12.40625 0 
z
" id="DejaVuSans-31"/>
      </defs>
      <g transform="translate(1555.085201 963.397656)scale(0.15 -0.15)">
       <use xlink:href="#DejaVuSans-31"/>
       <use x="63.623047" xlink:href="#DejaVuSans-30"/>
       <use x="127.246094" xlink:href="#DejaVuSans-30"/>
      </g>
     </g>
    </g>
    <g id="text_7">
     <!-- Timestep -->
     <defs>
      <path d="M -0.296875 72.90625 
L 61.375 72.90625 
L 61.375 64.59375 
L 35.5 64.59375 
L 35.5 0 
L 25.59375 0 
L 25.59375 64.59375 
L -0.296875 64.59375 
z
" id="DejaVuSans-54"/>
      <path d="M 9.421875 54.6875 
L 18.40625 54.6875 
L 18.40625 0 
L 9.421875 0 
z
M 9.421875 75.984375 
L 18.40625 75.984375 
L 18.40625 64.59375 
L 9.421875 64.59375 
z
" id="DejaVuSans-69"/>
      <path d="M 52 44.1875 
Q 55.375 50.25 60.0625 53.125 
Q 64.75 56 71.09375 56 
Q 79.640625 56 84.28125 50.015625 
Q 88.921875 44.046875 88.921875 33.015625 
L 88.921875 0 
L 79.890625 0 
L 79.890625 32.71875 
Q 79.890625 40.578125 77.09375 44.375 
Q 74.3125 48.1875 68.609375 48.1875 
Q 61.625 48.1875 57.5625 43.546875 
Q 53.515625 38.921875 53.515625 30.90625 
L 53.515625 0 
L 44.484375 0 
L 44.484375 32.71875 
Q 44.484375 40.625 41.703125 44.40625 
Q 38.921875 48.1875 33.109375 48.1875 
Q 26.21875 48.1875 22.15625 43.53125 
Q 18.109375 38.875 18.109375 30.90625 
L 18.109375 0 
L 9.078125 0 
L 9.078125 54.6875 
L 18.109375 54.6875 
L 18.109375 46.1875 
Q 21.1875 51.21875 25.484375 53.609375 
Q 29.78125 56 35.6875 56 
Q 41.65625 56 45.828125 52.96875 
Q 50 49.953125 52 44.1875 
" id="DejaVuSans-6d"/>
      <path d="M 56.203125 29.59375 
L 56.203125 25.203125 
L 14.890625 25.203125 
Q 15.484375 15.921875 20.484375 11.0625 
Q 25.484375 6.203125 34.421875 6.203125 
Q 39.59375 6.203125 44.453125 7.46875 
Q 49.3125 8.734375 54.109375 11.28125 
L 54.109375 2.78125 
Q 49.265625 0.734375 44.1875 -0.34375 
Q 39.109375 -1.421875 33.890625 -1.421875 
Q 20.796875 -1.421875 13.15625 6.1875 
Q 5.515625 13.8125 5.515625 26.8125 
Q 5.515625 40.234375 12.765625 48.109375 
Q 20.015625 56 32.328125 56 
Q 43.359375 56 49.78125 48.890625 
Q 56.203125 41.796875 56.203125 29.59375 
M 47.21875 32.234375 
Q 47.125 39.59375 43.09375 43.984375 
Q 39.0625 48.390625 32.421875 48.390625 
Q 24.90625 48.390625 20.390625 44.140625 
Q 15.875 39.890625 15.1875 32.171875 
z
" id="DejaVuSans-65"/>
      <path d="M 44.28125 53.078125 
L 44.28125 44.578125 
Q 40.484375 46.53125 36.375 47.5 
Q 32.28125 48.484375 27.875 48.484375 
Q 21.1875 48.484375 17.84375 46.4375 
Q 14.5 44.390625 14.5 40.28125 
Q 14.5 37.15625 16.890625 35.375 
Q 19.28125 33.59375 26.515625 31.984375 
L 29.59375 31.296875 
Q 39.15625 29.25 43.1875 25.515625 
Q 47.21875 21.78125 47.21875 15.09375 
Q 47.21875 7.46875 41.1875 3.015625 
Q 35.15625 -1.421875 24.609375 -1.421875 
Q 20.21875 -1.421875 15.453125 -0.5625 
Q 10.6875 0.296875 5.421875 2 
L 5.421875 11.28125 
Q 10.40625 8.6875 15.234375 7.390625 
Q 20.0625 6.109375 24.8125 6.109375 
Q 31.15625 6.109375 34.5625 8.28125 
Q 37.984375 10.453125 37.984375 14.40625 
Q 37.984375 18.0625 35.515625 20.015625 
Q 33.0625 21.96875 24.703125 23.78125 
L 21.578125 24.515625 
Q 13.234375 26.265625 9.515625 29.90625 
Q 5.8125 33.546875 5.8125 39.890625 
Q 5.8125 47.609375 11.28125 51.796875 
Q 16.75 56 26.8125 56 
Q 31.78125 56 36.171875 55.265625 
Q 40.578125 54.546875 44.28125 53.078125 
" id="DejaVuSans-73"/>
      <path d="M 18.3125 70.21875 
L 18.3125 54.6875 
L 36.8125 54.6875 
L 36.8125 47.703125 
L 18.3125 47.703125 
L 18.3125 18.015625 
Q 18.3125 11.328125 20.140625 9.421875 
Q 21.96875 7.515625 27.59375 7.515625 
L 36.8125 7.515625 
L 36.8125 0 
L 27.59375 0 
Q 17.1875 0 13.234375 3.875 
Q 9.28125 7.765625 9.28125 18.015625 
L 9.28125 47.703125 
L 2.6875 47.703125 
L 2.6875 54.6875 
L 9.28125 54.6875 
L 9.28125 70.21875 
z
" id="DejaVuSans-74"/>
      <path d="M 18.109375 8.203125 
L 18.109375 -20.796875 
L 9.078125 -20.796875 
L 9.078125 54.6875 
L 18.109375 54.6875 
L 18.109375 46.390625 
Q 20.953125 51.265625 25.265625 53.625 
Q 29.59375 56 35.59375 56 
Q 45.5625 56 51.78125 48.09375 
Q 58.015625 40.1875 58.015625 27.296875 
Q 58.015625 14.40625 51.78125 6.484375 
Q 45.5625 -1.421875 35.59375 -1.421875 
Q 29.59375 -1.421875 25.265625 0.953125 
Q 20.953125 3.328125 18.109375 8.203125 
M 48.6875 27.296875 
Q 48.6875 37.203125 44.609375 42.84375 
Q 40.53125 48.484375 33.40625 48.484375 
Q 26.265625 48.484375 22.1875 42.84375 
Q 18.109375 37.203125 18.109375 27.296875 
Q 18.109375 17.390625 22.1875 11.75 
Q 26.265625 6.109375 33.40625 6.109375 
Q 40.53125 6.109375 44.609375 11.75 
Q 48.6875 17.390625 48.6875 27.296875 
" id="DejaVuSans-70"/>
     </defs>
     <g transform="translate(899.296875 978.115625)scale(0.1 -0.1)">
      <use xlink:href="#DejaVuSans-54"/>
      <use x="61.037109" xlink:href="#DejaVuSans-69"/>
      <use x="88.820312" xlink:href="#DejaVuSans-6d"/>
      <use x="186.232422" xlink:href="#DejaVuSans-65"/>
      <use x="247.755859" xlink:href="#DejaVuSans-73"/>
      <use x="299.855469" xlink:href="#DejaVuSans-74"/>
      <use x="339.064453" xlink:href="#DejaVuSans-65"/>
      <use x="400.587891" xlink:href="#DejaVuSans-70"/>
     </g>
    </g>
   </g>
   <g id="matplotlib.axis_2">
    <g id="ytick_1">
     <g id="line2d_7">
      <defs>
       <path d="M 0 0 
L -3.5 0 
" id="m19043e8411" style="stroke:#000000;stroke-width:0.8;"/>
      </defs>
      <g>
       <use style="stroke:#000000;stroke-width:0.8;" x="225" xlink:href="#m19043e8411" y="945"/>
      </g>
     </g>
     <g id="text_8">
      <!-- 0 -->
      <g transform="translate(208.45625 950.698828)scale(0.15 -0.15)">
       <use xlink:href="#DejaVuSans-30"/>
      </g>
     </g>
    </g>
    <g id="ytick_2">
     <g id="line2d_8">
      <g>
       <use style="stroke:#000000;stroke-width:0.8;" x="225" xlink:href="#m19043e8411" y="781.92"/>
      </g>
     </g>
     <g id="text_9">
      <!-- 10 -->
      <g transform="translate(198.9125 787.618828)scale(0.15 -0.15)">
       <use xlink:href="#DejaVuSans-31"/>
       <use x="63.623047" xlink:href="#DejaVuSans-30"/>
      </g>
     </g>
    </g>
    <g id="ytick_3">
     <g id="line2d_9">
      <g>
       <use style="stroke:#000000;stroke-width:0.8;" x="225" xlink:href="#m19043e8411" y="618.84"/>
      </g>
     </g>
     <g id="text_10">
      <!-- 20 -->
      <g transform="translate(198.9125 624.538828)scale(0.15 -0.15)">
       <use xlink:href="#DejaVuSans-32"/>
       <use x="63.623047" xlink:href="#DejaVuSans-30"/>
      </g>
     </g>
    </g>
    <g id="ytick_4">
     <g id="line2d_10">
      <g>
       <use style="stroke:#000000;stroke-width:0.8;" x="225" xlink:href="#m19043e8411" y="455.76"/>
      </g>
     </g>
     <g id="text_11">
      <!-- 30 -->
      <defs>
       <path d="M 40.578125 39.3125 
Q 47.65625 37.796875 51.625 33 
Q 55.609375 28.21875 55.609375 21.1875 
Q 55.609375 10.40625 48.1875 4.484375 
Q 40.765625 -1.421875 27.09375 -1.421875 
Q 22.515625 -1.421875 17.65625 -0.515625 
Q 12.796875 0.390625 7.625 2.203125 
L 7.625 11.71875 
Q 11.71875 9.328125 16.59375 8.109375 
Q 21.484375 6.890625 26.8125 6.890625 
Q 36.078125 6.890625 40.9375 10.546875 
Q 45.796875 14.203125 45.796875 21.1875 
Q 45.796875 27.640625 41.28125 31.265625 
Q 36.765625 34.90625 28.71875 34.90625 
L 20.21875 34.90625 
L 20.21875 43.015625 
L 29.109375 43.015625 
Q 36.375 43.015625 40.234375 45.921875 
Q 44.09375 48.828125 44.09375 54.296875 
Q 44.09375 59.90625 40.109375 62.90625 
Q 36.140625 65.921875 28.71875 65.921875 
Q 24.65625 65.921875 20.015625 65.03125 
Q 15.375 64.15625 9.8125 62.3125 
L 9.8125 71.09375 
Q 15.4375 72.65625 20.34375 73.4375 
Q 25.25 74.21875 29.59375 74.21875 
Q 40.828125 74.21875 47.359375 69.109375 
Q 53.90625 64.015625 53.90625 55.328125 
Q 53.90625 49.265625 50.4375 45.09375 
Q 46.96875 40.921875 40.578125 39.3125 
" id="DejaVuSans-33"/>
      </defs>
      <g transform="translate(198.9125 461.458828)scale(0.15 -0.15)">
       <use xlink:href="#DejaVuSans-33"/>
       <use x="63.623047" xlink:href="#DejaVuSans-30"/>
      </g>
     </g>
    </g>
    <g id="ytick_5">
     <g id="line2d_11">
      <g>
       <use style="stroke:#000000;stroke-width:0.8;" x="225" xlink:href="#m19043e8411" y="292.68"/>
      </g>
     </g>
     <g id="text_12">
      <!-- 40 -->
      <g transform="translate(198.9125 298.378828)scale(0.15 -0.15)">
       <use xlink:href="#DejaVuSans-34"/>
       <use x="63.623047" xlink:href="#DejaVuSans-30"/>
      </g>
     </g>
    </g>
    <g id="ytick_6">
     <g id="line2d_12">
      <g>
       <use style="stroke:#000000;stroke-width:0.8;" x="225" xlink:href="#m19043e8411" y="129.6"/>
      </g>
     </g>
     <g id="text_13">
      <!-- 50 -->
      <defs>
       <path d="M 10.796875 72.90625 
L 49.515625 72.90625 
L 49.515625 64.59375 
L 19.828125 64.59375 
L 19.828125 46.734375 
Q 21.96875 47.46875 24.109375 47.828125 
Q 26.265625 48.1875 28.421875 48.1875 
Q 40.625 48.1875 47.75 41.5 
Q 54.890625 34.8125 54.890625 23.390625 
Q 54.890625 11.625 47.5625 5.09375 
Q 40.234375 -1.421875 26.90625 -1.421875 
Q 22.3125 -1.421875 17.546875 -0.640625 
Q 12.796875 0.140625 7.71875 1.703125 
L 7.71875 11.625 
Q 12.109375 9.234375 16.796875 8.0625 
Q 21.484375 6.890625 26.703125 6.890625 
Q 35.15625 6.890625 40.078125 11.328125 
Q 45.015625 15.765625 45.015625 23.390625 
Q 45.015625 31 40.078125 35.4375 
Q 35.15625 39.890625 26.703125 39.890625 
Q 22.75 39.890625 18.8125 39.015625 
Q 14.890625 38.140625 10.796875 36.28125 
z
" id="DejaVuSans-35"/>
      </defs>
      <g transform="translate(198.9125 135.298828)scale(0.15 -0.15)">
       <use xlink:href="#DejaVuSans-35"/>
       <use x="63.623047" xlink:href="#DejaVuSans-30"/>
      </g>
     </g>
    </g>
    <g id="text_14">
     <!-- Substrates occupied -->
     <defs>
      <path d="M 53.515625 70.515625 
L 53.515625 60.890625 
Q 47.90625 63.578125 42.921875 64.890625 
Q 37.9375 66.21875 33.296875 66.21875 
Q 25.25 66.21875 20.875 63.09375 
Q 16.5 59.96875 16.5 54.203125 
Q 16.5 49.359375 19.40625 46.890625 
Q 22.3125 44.4375 30.421875 42.921875 
L 36.375 41.703125 
Q 47.40625 39.59375 52.65625 34.296875 
Q 57.90625 29 57.90625 20.125 
Q 57.90625 9.515625 50.796875 4.046875 
Q 43.703125 -1.421875 29.984375 -1.421875 
Q 24.8125 -1.421875 18.96875 -0.25 
Q 13.140625 0.921875 6.890625 3.21875 
L 6.890625 13.375 
Q 12.890625 10.015625 18.65625 8.296875 
Q 24.421875 6.59375 29.984375 6.59375 
Q 38.421875 6.59375 43.015625 9.90625 
Q 47.609375 13.234375 47.609375 19.390625 
Q 47.609375 24.75 44.3125 27.78125 
Q 41.015625 30.8125 33.5 32.328125 
L 27.484375 33.5 
Q 16.453125 35.6875 11.515625 40.375 
Q 6.59375 45.0625 6.59375 53.421875 
Q 6.59375 63.09375 13.40625 68.65625 
Q 20.21875 74.21875 32.171875 74.21875 
Q 37.3125 74.21875 42.625 73.28125 
Q 47.953125 72.359375 53.515625 70.515625 
" id="DejaVuSans-53"/>
      <path d="M 8.5 21.578125 
L 8.5 54.6875 
L 17.484375 54.6875 
L 17.484375 21.921875 
Q 17.484375 14.15625 20.5 10.265625 
Q 23.53125 6.390625 29.59375 6.390625 
Q 36.859375 6.390625 41.078125 11.03125 
Q 45.3125 15.671875 45.3125 23.6875 
L 45.3125 54.6875 
L 54.296875 54.6875 
L 54.296875 0 
L 45.3125 0 
L 45.3125 8.40625 
Q 42.046875 3.421875 37.71875 1 
Q 33.40625 -1.421875 27.6875 -1.421875 
Q 18.265625 -1.421875 13.375 4.4375 
Q 8.5 10.296875 8.5 21.578125 
M 31.109375 56 
z
" id="DejaVuSans-75"/>
      <path d="M 48.6875 27.296875 
Q 48.6875 37.203125 44.609375 42.84375 
Q 40.53125 48.484375 33.40625 48.484375 
Q 26.265625 48.484375 22.1875 42.84375 
Q 18.109375 37.203125 18.109375 27.296875 
Q 18.109375 17.390625 22.1875 11.75 
Q 26.265625 6.109375 33.40625 6.109375 
Q 40.53125 6.109375 44.609375 11.75 
Q 48.6875 17.390625 48.6875 27.296875 
M 18.109375 46.390625 
Q 20.953125 51.265625 25.265625 53.625 
Q 29.59375 56 35.59375 56 
Q 45.5625 56 51.78125 48.09375 
Q 58.015625 40.1875 58.015625 27.296875 
Q 58.015625 14.40625 51.78125 6.484375 
Q 45.5625 -1.421875 35.59375 -1.421875 
Q 29.59375 -1.421875 25.265625 0.953125 
Q 20.953125 3.328125 18.109375 8.203125 
L 18.109375 0 
L 9.078125 0 
L 9.078125 75.984375 
L 18.109375 75.984375 
z
" id="DejaVuSans-62"/>
      <path d="M 41.109375 46.296875 
Q 39.59375 47.171875 37.8125 47.578125 
Q 36.03125 48 33.890625 48 
Q 26.265625 48 22.1875 43.046875 
Q 18.109375 38.09375 18.109375 28.8125 
L 18.109375 0 
L 9.078125 0 
L 9.078125 54.6875 
L 18.109375 54.6875 
L 18.109375 46.1875 
Q 20.953125 51.171875 25.484375 53.578125 
Q 30.03125 56 36.53125 56 
Q 37.453125 56 38.578125 55.875 
Q 39.703125 55.765625 41.0625 55.515625 
z
" id="DejaVuSans-72"/>
      <path d="M 34.28125 27.484375 
Q 23.390625 27.484375 19.1875 25 
Q 14.984375 22.515625 14.984375 16.5 
Q 14.984375 11.71875 18.140625 8.90625 
Q 21.296875 6.109375 26.703125 6.109375 
Q 34.1875 6.109375 38.703125 11.40625 
Q 43.21875 16.703125 43.21875 25.484375 
L 43.21875 27.484375 
z
M 52.203125 31.203125 
L 52.203125 0 
L 43.21875 0 
L 43.21875 8.296875 
Q 40.140625 3.328125 35.546875 0.953125 
Q 30.953125 -1.421875 24.3125 -1.421875 
Q 15.921875 -1.421875 10.953125 3.296875 
Q 6 8.015625 6 15.921875 
Q 6 25.140625 12.171875 29.828125 
Q 18.359375 34.515625 30.609375 34.515625 
L 43.21875 34.515625 
L 43.21875 35.40625 
Q 43.21875 41.609375 39.140625 45 
Q 35.0625 48.390625 27.6875 48.390625 
Q 23 48.390625 18.546875 47.265625 
Q 14.109375 46.140625 10.015625 43.890625 
L 10.015625 52.203125 
Q 14.9375 54.109375 19.578125 55.046875 
Q 24.21875 56 28.609375 56 
Q 40.484375 56 46.34375 49.84375 
Q 52.203125 43.703125 52.203125 31.203125 
" id="DejaVuSans-61"/>
      <path id="DejaVuSans-20"/>
      <path d="M 30.609375 48.390625 
Q 23.390625 48.390625 19.1875 42.75 
Q 14.984375 37.109375 14.984375 27.296875 
Q 14.984375 17.484375 19.15625 11.84375 
Q 23.34375 6.203125 30.609375 6.203125 
Q 37.796875 6.203125 41.984375 11.859375 
Q 46.1875 17.53125 46.1875 27.296875 
Q 46.1875 37.015625 41.984375 42.703125 
Q 37.796875 48.390625 30.609375 48.390625 
M 30.609375 56 
Q 42.328125 56 49.015625 48.375 
Q 55.71875 40.765625 55.71875 27.296875 
Q 55.71875 13.875 49.015625 6.21875 
Q 42.328125 -1.421875 30.609375 -1.421875 
Q 18.84375 -1.421875 12.171875 6.21875 
Q 5.515625 13.875 5.515625 27.296875 
Q 5.515625 40.765625 12.171875 48.375 
Q 18.84375 56 30.609375 56 
" id="DejaVuSans-6f"/>
      <path d="M 48.78125 52.59375 
L 48.78125 44.1875 
Q 44.96875 46.296875 41.140625 47.34375 
Q 37.3125 48.390625 33.40625 48.390625 
Q 24.65625 48.390625 19.8125 42.84375 
Q 14.984375 37.3125 14.984375 27.296875 
Q 14.984375 17.28125 19.8125 11.734375 
Q 24.65625 6.203125 33.40625 6.203125 
Q 37.3125 6.203125 41.140625 7.25 
Q 44.96875 8.296875 48.78125 10.40625 
L 48.78125 2.09375 
Q 45.015625 0.34375 40.984375 -0.53125 
Q 36.96875 -1.421875 32.421875 -1.421875 
Q 20.0625 -1.421875 12.78125 6.34375 
Q 5.515625 14.109375 5.515625 27.296875 
Q 5.515625 40.671875 12.859375 48.328125 
Q 20.21875 56 33.015625 56 
Q 37.15625 56 41.109375 55.140625 
Q 45.0625 54.296875 48.78125 52.59375 
" id="DejaVuSans-63"/>
      <path d="M 45.40625 46.390625 
L 45.40625 75.984375 
L 54.390625 75.984375 
L 54.390625 0 
L 45.40625 0 
L 45.40625 8.203125 
Q 42.578125 3.328125 38.25 0.953125 
Q 33.9375 -1.421875 27.875 -1.421875 
Q 17.96875 -1.421875 11.734375 6.484375 
Q 5.515625 14.40625 5.515625 27.296875 
Q 5.515625 40.1875 11.734375 48.09375 
Q 17.96875 56 27.875 56 
Q 33.9375 56 38.25 53.625 
Q 42.578125 51.265625 45.40625 46.390625 
M 14.796875 27.296875 
Q 14.796875 17.390625 18.875 11.75 
Q 22.953125 6.109375 30.078125 6.109375 
Q 37.203125 6.109375 41.296875 11.75 
Q 45.40625 17.390625 45.40625 27.296875 
Q 45.40625 37.203125 41.296875 42.84375 
Q 37.203125 48.484375 30.078125 48.484375 
Q 22.953125 48.484375 18.875 42.84375 
Q 14.796875 37.203125 14.796875 27.296875 
" id="DejaVuSans-64"/>
     </defs>
     <g transform="translate(189.713281 664.731641)rotate(-90)scale(0.25 -0.25)">
      <use xlink:href="#DejaVuSans-53"/>
      <use x="63.476562" xlink:href="#DejaVuSans-75"/>
      <use x="126.855469" xlink:href="#DejaVuSans-62"/>
      <use x="190.332031" xlink:href="#DejaVuSans-73"/>
      <use x="242.431641" xlink:href="#DejaVuSans-74"/>
      <use x="281.640625" xlink:href="#DejaVuSans-72"/>
      <use x="322.753906" xlink:href="#DejaVuSans-61"/>
      <use x="384.033203" xlink:href="#DejaVuSans-74"/>
      <use x="423.242188" xlink:href="#DejaVuSans-65"/>
      <use x="484.765625" xlink:href="#DejaVuSans-73"/>
      <use x="536.865234" xlink:href="#DejaVuSans-20"/>
      <use x="568.652344" xlink:href="#DejaVuSans-6f"/>
      <use x="629.833984" xlink:href="#DejaVuSans-63"/>
      <use x="684.814453" xlink:href="#DejaVuSans-63"/>
      <use x="739.794922" xlink:href="#DejaVuSans-75"/>
      <use x="803.173828" xlink:href="#DejaVuSans-70"/>
      <use x="866.650391" xlink:href="#DejaVuSans-69"/>
      <use x="894.433594" xlink:href="#DejaVuSans-65"/>
      <use x="955.957031" xlink:href="#DejaVuSans-64"/>
     </g>
    </g>
   </g>
   <g id="line2d_13">
    <path clip-path="url(#pbab71a2abb)" d="M 288.409091 904.39308 
L 301.219008 882.70344 
L 314.028926 883.845 
L 326.838843 869.65704 
L 339.64876 848.7828 
L 352.458678 836.22564 
L 365.268595 840.95496 
L 378.078512 823.99464 
L 390.88843 793.00944 
L 403.698347 770.01516 
L 416.508264 778.6584 
L 429.318182 756.47952 
L 442.128099 712.611 
L 454.938017 689.12748 
L 467.747934 704.62008 
L 480.557851 681.78888 
L 493.367769 641.99736 
L 506.177686 621.44928 
L 518.987603 647.21592 
L 531.797521 639.71424 
L 544.607438 607.91364 
L 557.417355 588.6702 
L 570.227273 616.88304 
L 583.03719 613.1322 
L 595.847107 599.43348 
L 608.657025 593.23644 
L 621.466942 620.63388 
L 634.27686 630.09252 
L 647.086777 625.03704 
L 659.896694 630.90792 
L 672.706612 660.09924 
L 685.516529 678.52728 
L 698.326446 677.5488 
L 711.136364 690.43212 
L 723.946281 713.75256 
L 736.756198 731.3652 
L 749.566116 732.34368 
L 762.376033 737.72532 
L 775.18595 757.78416 
L 787.995868 775.72296 
L 800.805785 778.82148 
L 813.615702 773.60292 
L 826.42562 786.48624 
L 839.235537 800.34804 
L 852.045455 798.71724 
L 864.855372 793.3356 
L 877.665289 805.24044 
L 890.475207 812.25288 
L 903.285124 804.26196 
L 916.095041 796.43412 
L 928.904959 801.97884 
L 941.714876 810.459 
L 954.524793 810.62208 
L 967.334711 807.84972 
L 980.144628 812.57904 
L 992.954545 815.51448 
L 1005.764463 819.59148 
L 1018.57438 810.459 
L 1031.384298 813.06828 
L 1044.194215 810.62208 
L 1057.004132 808.66512 
L 1069.81405 802.14192 
L 1082.623967 802.95732 
L 1095.433884 802.46808 
L 1108.243802 803.1204 
L 1121.053719 797.08644 
L 1133.863636 797.73876 
L 1146.673554 794.31408 
L 1159.483471 792.68328 
L 1172.293388 792.35712 
L 1185.103306 791.21556 
L 1197.913223 793.49868 
L 1210.72314 798.39108 
L 1223.533058 799.53264 
L 1236.342975 799.69572 
L 1249.152893 807.68664 
L 1261.96281 810.29592 
L 1274.772727 808.50204 
L 1287.582645 813.06828 
L 1300.392562 816.65604 
L 1313.202479 816.00372 
L 1326.012397 809.80668 
L 1338.822314 814.69908 
L 1351.632231 819.26532 
L 1364.442149 822.03768 
L 1377.252066 826.27776 
L 1390.061983 830.19168 
L 1402.871901 830.68092 
L 1415.681818 827.41932 
L 1428.491736 832.4748 
L 1441.301653 832.4748 
L 1454.11157 830.35476 
L 1466.921488 826.93008 
L 1479.731405 829.86552 
L 1492.541322 829.2132 
L 1505.35124 827.09316 
L 1518.161157 822.03768 
L 1530.971074 826.767 
L 1543.780992 829.70244 
L 1556.590909 826.60392 
" style="fill:none;stroke:#ff0000;stroke-linecap:square;stroke-width:1.5;"/>
   </g>
   <g id="line2d_14">
    <path clip-path="url(#pbab71a2abb)" d="M 288.409091 923.14728 
L 301.219008 915.48252 
L 314.028926 908.95932 
L 326.838843 903.25152 
L 339.64876 895.42368 
L 352.458678 887.922 
L 365.268595 884.98656 
L 378.078512 885.4758 
L 390.88843 877.97412 
L 403.698347 875.03868 
L 416.508264 869.9832 
L 429.318182 865.58004 
L 442.128099 856.1214 
L 454.938017 851.71824 
L 467.747934 847.152 
L 480.557851 841.4442 
L 493.367769 834.75792 
L 506.177686 823.83156 
L 518.987603 819.4284 
L 531.797521 816.81912 
L 544.607438 813.88368 
L 557.417355 813.06828 
L 570.227273 811.76364 
L 583.03719 808.66512 
L 595.847107 800.6742 
L 608.657025 797.73876 
L 621.466942 799.20648 
L 634.27686 795.7818 
L 647.086777 797.24952 
L 659.896694 799.36956 
L 672.706612 799.36956 
L 685.516529 795.7818 
L 698.326446 794.80332 
L 711.136364 796.27104 
L 723.946281 794.151 
L 736.756198 797.57568 
L 749.566116 798.39108 
L 762.376033 797.57568 
L 775.18595 793.00944 
L 787.995868 792.5202 
L 800.805785 786.48624 
L 813.615702 783.06156 
L 826.42562 783.87696 
L 839.235537 780.77844 
L 852.045455 775.55988 
L 864.855372 770.17824 
L 877.665289 766.10124 
L 890.475207 765.93816 
L 903.285124 763.65504 
L 916.095041 763.49196 
L 928.904959 766.75356 
L 941.714876 773.92908 
L 954.524793 777.51684 
L 967.334711 779.63688 
L 980.144628 781.43076 
L 992.954545 781.92 
L 1005.764463 780.77844 
L 1018.57438 778.00608 
L 1031.384298 778.16916 
L 1044.194215 771.80904 
L 1057.004132 769.689 
L 1069.81405 770.99364 
L 1082.623967 770.34132 
L 1095.433884 774.09216 
L 1108.243802 773.92908 
L 1121.053719 773.43984 
L 1133.863636 764.95968 
L 1146.673554 760.55652 
L 1159.483471 755.8272 
L 1172.293388 749.304 
L 1185.103306 747.51012 
L 1197.913223 749.95632 
L 1210.72314 751.91328 
L 1223.533058 758.2734 
L 1236.342975 763.1658 
L 1249.152893 757.13184 
L 1261.96281 758.43648 
L 1274.772727 752.40252 
L 1287.582645 756.96876 
L 1300.392562 753.54408 
L 1313.202479 750.1194 
L 1326.012397 749.46708 
L 1338.822314 750.60864 
L 1351.632231 756.96876 
L 1364.442149 760.55652 
L 1377.252066 764.14428 
L 1390.061983 764.30736 
L 1402.871901 761.04576 
L 1415.681818 762.18732 
L 1428.491736 762.51348 
L 1441.301653 760.39344 
L 1454.11157 765.44892 
L 1466.921488 766.91664 
L 1479.731405 765.612 
L 1492.541322 765.44892 
L 1505.35124 764.63352 
L 1518.161157 763.65504 
L 1530.971074 762.67656 
L 1543.780992 759.0888 
L 1556.590909 756.80568 
" style="fill:none;stroke:#0000ff;stroke-linecap:square;stroke-width:1.5;"/>
   </g>
   <g id="line2d_15">
    <path clip-path="url(#pbab71a2abb)" d="M 288.409091 941.193085 
L 301.219008 938.595123 
L 314.028926 939.058126 
L 326.838843 937.180391 
L 339.64876 933.707868 
L 352.458678 931.444297 
L 365.268595 930.981293 
L 378.078512 929.000669 
L 390.88843 922.647237 
L 403.698347 921.489729 
L 416.508264 920.203609 
L 429.318182 916.833975 
L 442.128099 912.049609 
L 454.938017 908.345584 
L 467.747934 907.188076 
L 480.557851 904.178555 
L 493.367769 899.162688 
L 506.177686 892.500587 
L 518.987603 891.060132 
L 531.797521 887.433274 
L 544.607438 885.735596 
L 557.417355 884.861035 
L 570.227273 882.726076 
L 583.03719 880.385338 
L 595.847107 876.835647 
L 608.657025 874.700688 
L 621.466942 874.031905 
L 634.27686 870.816606 
L 647.086777 863.948726 
L 659.896694 862.070991 
L 672.706612 861.710877 
L 685.516529 859.344416 
L 698.326446 858.598467 
L 711.136364 856.077672 
L 723.946281 857.055123 
L 736.756198 852.347924 
L 749.566116 853.428265 
L 762.376033 851.421918 
L 775.18595 851.55053 
L 787.995868 849.981464 
L 800.805785 848.669621 
L 813.615702 847.872227 
L 826.42562 847.332057 
L 839.235537 845.943047 
L 852.045455 843.808088 
L 864.855372 841.184404 
L 877.665289 841.390183 
L 890.475207 840.541344 
L 903.285124 839.949729 
L 916.095041 837.06882 
L 928.904959 835.756978 
L 941.714876 856.180562 
L 954.524793 856.334896 
L 967.334711 855.306 
L 980.144628 855.254555 
L 992.954545 855.306 
L 1005.764463 855.794726 
L 1018.57438 855.357445 
L 1031.384298 855.074498 
L 1044.194215 853.325375 
L 1057.004132 851.910644 
L 1069.81405 869.118927 
L 1082.623967 869.556208 
L 1095.433884 867.704196 
L 1108.243802 867.807085 
L 1121.053719 863.871558 
L 1133.863636 863.974448 
L 1146.673554 862.456826 
L 1159.483471 861.170707 
L 1172.293388 859.447306 
L 1185.103306 858.5213 
L 1197.913223 875.112246 
L 1210.72314 874.597798 
L 1223.533058 873.851849 
L 1236.342975 873.234511 
L 1249.152893 873.44029 
L 1261.96281 873.131621 
L 1274.772727 872.668618 
L 1287.582645 872.102726 
L 1300.392562 869.376151 
L 1313.202479 868.527312 
L 1326.012397 881.414233 
L 1338.822314 880.205281 
L 1351.632231 880.822618 
L 1364.442149 881.028397 
L 1377.252066 880.231003 
L 1390.061983 880.231003 
L 1402.871901 880.30817 
L 1415.681818 880.539672 
L 1428.491736 881.05412 
L 1441.301653 879.510776 
L 1454.11157 891.67747 
L 1466.921488 891.008688 
L 1479.731405 889.825457 
L 1492.541322 888.745117 
L 1505.35124 888.204946 
L 1518.161157 887.793388 
L 1530.971074 886.455823 
L 1543.780992 886.018543 
L 1556.590909 886.121432 
" style="fill:none;stroke:#008000;stroke-dasharray:2.2,2.2;stroke-dashoffset:0;"/>
   </g>
   <g id="line2d_16">
    <path clip-path="url(#pbab71a2abb)" d="M 941.714876 945 
L 941.714876 129.6 
" style="fill:none;stroke:#000000;stroke-dasharray:2.2,2.2;stroke-dashoffset:0;stroke-width:1.5;"/>
   </g>
   <g id="line2d_17">
    <path clip-path="url(#pbab71a2abb)" d="M 1069.81405 945 
L 1069.81405 129.6 
" style="fill:none;stroke:#000000;stroke-dasharray:2.2,2.2;stroke-dashoffset:0;stroke-width:1.5;"/>
   </g>
   <g id="line2d_18">
    <path clip-path="url(#pbab71a2abb)" d="M 1197.913223 945 
L 1197.913223 129.6 
" style="fill:none;stroke:#000000;stroke-dasharray:2.2,2.2;stroke-dashoffset:0;stroke-width:1.5;"/>
   </g>
   <g id="line2d_19">
    <path clip-path="url(#pbab71a2abb)" d="M 1326.012397 945 
L 1326.012397 129.6 
" style="fill:none;stroke:#000000;stroke-dasharray:2.2,2.2;stroke-dashoffset:0;stroke-width:1.5;"/>
   </g>
   <g id="line2d_20">
    <path clip-path="url(#pbab71a2abb)" d="M 1454.11157 945 
L 1454.11157 129.6 
" style="fill:none;stroke:#000000;stroke-dasharray:2.2,2.2;stroke-dashoffset:0;stroke-width:1.5;"/>
   </g>
   <g id="patch_3">
    <path d="M 225 945 
L 225 129.6 
" style="fill:none;stroke:#000000;stroke-linecap:square;stroke-linejoin:miter;stroke-width:0.8;"/>
   </g>
   <g id="patch_4">
    <path d="M 1620 945 
L 1620 129.6 
" style="fill:none;stroke:#000000;stroke-linecap:square;stroke-linejoin:miter;stroke-width:0.8;"/>
   </g>
   <g id="patch_5">
    <path d="M 225 945 
L 1620 945 
" style="fill:none;stroke:#000000;stroke-linecap:square;stroke-linejoin:miter;stroke-width:0.8;"/>
   </g>
   <g id="patch_6">
    <path d="M 225 129.6 
L 1620 129.6 
" style="fill:none;stroke:#000000;stroke-linecap:square;stroke-linejoin:miter;stroke-width:0.8;"/>
   </g>
   <g id="text_15">
    <!-- Serial thinning -->
    <defs>
     <path d="M 9.421875 75.984375 
L 18.40625 75.984375 
L 18.40625 0 
L 9.421875 0 
z
" id="DejaVuSans-6c"/>
     <path d="M 54.890625 33.015625 
L 54.890625 0 
L 45.90625 0 
L 45.90625 32.71875 
Q 45.90625 40.484375 42.875 44.328125 
Q 39.84375 48.1875 33.796875 48.1875 
Q 26.515625 48.1875 22.3125 43.546875 
Q 18.109375 38.921875 18.109375 30.90625 
L 18.109375 0 
L 9.078125 0 
L 9.078125 75.984375 
L 18.109375 75.984375 
L 18.109375 46.1875 
Q 21.34375 51.125 25.703125 53.5625 
Q 30.078125 56 35.796875 56 
Q 45.21875 56 50.046875 50.171875 
Q 54.890625 44.34375 54.890625 33.015625 
" id="DejaVuSans-68"/>
     <path d="M 54.890625 33.015625 
L 54.890625 0 
L 45.90625 0 
L 45.90625 32.71875 
Q 45.90625 40.484375 42.875 44.328125 
Q 39.84375 48.1875 33.796875 48.1875 
Q 26.515625 48.1875 22.3125 43.546875 
Q 18.109375 38.921875 18.109375 30.90625 
L 18.109375 0 
L 9.078125 0 
L 9.078125 54.6875 
L 18.109375 54.6875 
L 18.109375 46.1875 
Q 21.34375 51.125 25.703125 53.5625 
Q 30.078125 56 35.796875 56 
Q 45.21875 56 50.046875 50.171875 
Q 54.890625 44.34375 54.890625 33.015625 
" id="DejaVuSans-6e"/>
     <path d="M 45.40625 27.984375 
Q 45.40625 37.75 41.375 43.109375 
Q 37.359375 48.484375 30.078125 48.484375 
Q 22.859375 48.484375 18.828125 43.109375 
Q 14.796875 37.75 14.796875 27.984375 
Q 14.796875 18.265625 18.828125 12.890625 
Q 22.859375 7.515625 30.078125 7.515625 
Q 37.359375 7.515625 41.375 12.890625 
Q 45.40625 18.265625 45.40625 27.984375 
M 54.390625 6.78125 
Q 54.390625 -7.171875 48.1875 -13.984375 
Q 42 -20.796875 29.203125 -20.796875 
Q 24.46875 -20.796875 20.265625 -20.09375 
Q 16.0625 -19.390625 12.109375 -17.921875 
L 12.109375 -9.1875 
Q 16.0625 -11.328125 19.921875 -12.34375 
Q 23.78125 -13.375 27.78125 -13.375 
Q 36.625 -13.375 41.015625 -8.765625 
Q 45.40625 -4.15625 45.40625 5.171875 
L 45.40625 9.625 
Q 42.625 4.78125 38.28125 2.390625 
Q 33.9375 0 27.875 0 
Q 17.828125 0 11.671875 7.65625 
Q 5.515625 15.328125 5.515625 27.984375 
Q 5.515625 40.671875 11.671875 48.328125 
Q 17.828125 56 27.875 56 
Q 33.9375 56 38.28125 53.609375 
Q 42.625 51.21875 45.40625 46.390625 
L 45.40625 54.6875 
L 54.390625 54.6875 
z
" id="DejaVuSans-67"/>
    </defs>
    <g transform="translate(813.525 123.6)scale(0.3 -0.3)">
     <use xlink:href="#DejaVuSans-53"/>
     <use x="63.476562" xlink:href="#DejaVuSans-65"/>
     <use x="125" xlink:href="#DejaVuSans-72"/>
     <use x="166.113281" xlink:href="#DejaVuSans-69"/>
     <use x="193.896484" xlink:href="#DejaVuSans-61"/>
     <use x="255.175781" xlink:href="#DejaVuSans-6c"/>
     <use x="282.958984" xlink:href="#DejaVuSans-20"/>
     <use x="314.746094" xlink:href="#DejaVuSans-74"/>
     <use x="353.955078" xlink:href="#DejaVuSans-68"/>
     <use x="417.333984" xlink:href="#DejaVuSans-69"/>
     <use x="445.117188" xlink:href="#DejaVuSans-6e"/>
     <use x="508.496094" xlink:href="#DejaVuSans-6e"/>
     <use x="571.875" xlink:href="#DejaVuSans-69"/>
     <use x="599.658203" xlink:href="#DejaVuSans-6e"/>
     <use x="663.037109" xlink:href="#DejaVuSans-67"/>
    </g>
   </g>
   <g id="legend_1">
    <g id="patch_7">
     <path d="M 239 263.025 
L 525.25625 263.025 
Q 529.25625 263.025 529.25625 259.025 
L 529.25625 143.6 
Q 529.25625 139.6 525.25625 139.6 
L 239 139.6 
Q 235 139.6 235 143.6 
L 235 259.025 
Q 235 263.025 239 263.025 
z
" style="fill:#ffffff;opacity:0.3;stroke:#cccccc;stroke-linejoin:miter;"/>
    </g>
    <g id="line2d_21">
     <path d="M 243 155.796875 
L 283 155.796875 
" style="fill:none;stroke:#ff0000;stroke-linecap:square;stroke-width:1.5;"/>
    </g>
    <g id="line2d_22"/>
    <g id="text_16">
     <!-- decomposer -->
     <g transform="translate(299 162.796875)scale(0.2 -0.2)">
      <use xlink:href="#DejaVuSans-64"/>
      <use x="63.476562" xlink:href="#DejaVuSans-65"/>
      <use x="125" xlink:href="#DejaVuSans-63"/>
      <use x="179.980469" xlink:href="#DejaVuSans-6f"/>
      <use x="241.162109" xlink:href="#DejaVuSans-6d"/>
      <use x="338.574219" xlink:href="#DejaVuSans-70"/>
      <use x="402.050781" xlink:href="#DejaVuSans-6f"/>
      <use x="463.232422" xlink:href="#DejaVuSans-73"/>
      <use x="515.332031" xlink:href="#DejaVuSans-65"/>
      <use x="576.855469" xlink:href="#DejaVuSans-72"/>
     </g>
    </g>
    <g id="line2d_23">
     <path d="M 243 185.153125 
L 283 185.153125 
" style="fill:none;stroke:#0000ff;stroke-linecap:square;stroke-width:1.5;"/>
    </g>
    <g id="line2d_24"/>
    <g id="text_17">
     <!-- endophyte -->
     <defs>
      <path d="M 32.171875 -5.078125 
Q 28.375 -14.84375 24.75 -17.8125 
Q 21.140625 -20.796875 15.09375 -20.796875 
L 7.90625 -20.796875 
L 7.90625 -13.28125 
L 13.1875 -13.28125 
Q 16.890625 -13.28125 18.9375 -11.515625 
Q 21 -9.765625 23.484375 -3.21875 
L 25.09375 0.875 
L 2.984375 54.6875 
L 12.5 54.6875 
L 29.59375 11.921875 
L 46.6875 54.6875 
L 56.203125 54.6875 
z
" id="DejaVuSans-79"/>
     </defs>
     <g transform="translate(299 192.153125)scale(0.2 -0.2)">
      <use xlink:href="#DejaVuSans-65"/>
      <use x="61.523438" xlink:href="#DejaVuSans-6e"/>
      <use x="124.902344" xlink:href="#DejaVuSans-64"/>
      <use x="188.378906" xlink:href="#DejaVuSans-6f"/>
      <use x="249.560547" xlink:href="#DejaVuSans-70"/>
      <use x="313.037109" xlink:href="#DejaVuSans-68"/>
      <use x="376.416016" xlink:href="#DejaVuSans-79"/>
      <use x="435.595703" xlink:href="#DejaVuSans-74"/>
      <use x="474.804688" xlink:href="#DejaVuSans-65"/>
     </g>
    </g>
    <g id="line2d_25">
     <path d="M 243 214.509375 
L 283 214.509375 
" style="fill:none;stroke:#008000;stroke-dasharray:2.2,2.2;stroke-dashoffset:0;"/>
    </g>
    <g id="line2d_26"/>
    <g id="text_18">
     <!-- percent trees infected -->
     <defs>
      <path d="M 37.109375 75.984375 
L 37.109375 68.5 
L 28.515625 68.5 
Q 23.6875 68.5 21.796875 66.546875 
Q 19.921875 64.59375 19.921875 59.515625 
L 19.921875 54.6875 
L 34.71875 54.6875 
L 34.71875 47.703125 
L 19.921875 47.703125 
L 19.921875 0 
L 10.890625 0 
L 10.890625 47.703125 
L 2.296875 47.703125 
L 2.296875 54.6875 
L 10.890625 54.6875 
L 10.890625 58.5 
Q 10.890625 67.625 15.140625 71.796875 
Q 19.390625 75.984375 28.609375 75.984375 
z
" id="DejaVuSans-66"/>
     </defs>
     <g transform="translate(299 221.509375)scale(0.2 -0.2)">
      <use xlink:href="#DejaVuSans-70"/>
      <use x="63.476562" xlink:href="#DejaVuSans-65"/>
      <use x="125" xlink:href="#DejaVuSans-72"/>
      <use x="166.082031" xlink:href="#DejaVuSans-63"/>
      <use x="221.0625" xlink:href="#DejaVuSans-65"/>
      <use x="282.585938" xlink:href="#DejaVuSans-6e"/>
      <use x="345.964844" xlink:href="#DejaVuSans-74"/>
      <use x="385.173828" xlink:href="#DejaVuSans-20"/>
      <use x="416.960938" xlink:href="#DejaVuSans-74"/>
      <use x="456.169922" xlink:href="#DejaVuSans-72"/>
      <use x="497.251953" xlink:href="#DejaVuSans-65"/>
      <use x="558.775391" xlink:href="#DejaVuSans-65"/>
      <use x="620.298828" xlink:href="#DejaVuSans-73"/>
      <use x="672.398438" xlink:href="#DejaVuSans-20"/>
      <use x="704.185547" xlink:href="#DejaVuSans-69"/>
      <use x="731.96875" xlink:href="#DejaVuSans-6e"/>
      <use x="795.347656" xlink:href="#DejaVuSans-66"/>
      <use x="830.552734" xlink:href="#DejaVuSans-65"/>
      <use x="892.076172" xlink:href="#DejaVuSans-63"/>
      <use x="947.056641" xlink:href="#DejaVuSans-74"/>
      <use x="986.265625" xlink:href="#DejaVuSans-65"/>
      <use x="1047.789062" xlink:href="#DejaVuSans-64"/>
     </g>
    </g>
    <g id="line2d_27">
     <path d="M 243 243.865625 
L 283 243.865625 
" style="fill:none;stroke:#000000;stroke-dasharray:2.2,2.2;stroke-dashoffset:0;stroke-width:1.5;"/>
    </g>
    <g id="line2d_28"/>
    <g id="text_19">
     <!-- 10% removal of trees -->
     <defs>
      <path d="M 72.703125 32.078125 
Q 68.453125 32.078125 66.03125 28.46875 
Q 63.625 24.859375 63.625 18.40625 
Q 63.625 12.0625 66.03125 8.421875 
Q 68.453125 4.78125 72.703125 4.78125 
Q 76.859375 4.78125 79.265625 8.421875 
Q 81.6875 12.0625 81.6875 18.40625 
Q 81.6875 24.8125 79.265625 28.4375 
Q 76.859375 32.078125 72.703125 32.078125 
M 72.703125 38.28125 
Q 80.421875 38.28125 84.953125 32.90625 
Q 89.5 27.546875 89.5 18.40625 
Q 89.5 9.28125 84.9375 3.921875 
Q 80.375 -1.421875 72.703125 -1.421875 
Q 64.890625 -1.421875 60.34375 3.921875 
Q 55.8125 9.28125 55.8125 18.40625 
Q 55.8125 27.59375 60.375 32.9375 
Q 64.9375 38.28125 72.703125 38.28125 
M 22.3125 68.015625 
Q 18.109375 68.015625 15.6875 64.375 
Q 13.28125 60.75 13.28125 54.390625 
Q 13.28125 47.953125 15.671875 44.328125 
Q 18.0625 40.71875 22.3125 40.71875 
Q 26.5625 40.71875 28.96875 44.328125 
Q 31.390625 47.953125 31.390625 54.390625 
Q 31.390625 60.6875 28.953125 64.34375 
Q 26.515625 68.015625 22.3125 68.015625 
M 66.40625 74.21875 
L 74.21875 74.21875 
L 28.609375 -1.421875 
L 20.796875 -1.421875 
z
M 22.3125 74.21875 
Q 30.03125 74.21875 34.609375 68.875 
Q 39.203125 63.53125 39.203125 54.390625 
Q 39.203125 45.171875 34.640625 39.84375 
Q 30.078125 34.515625 22.3125 34.515625 
Q 14.546875 34.515625 10.03125 39.859375 
Q 5.515625 45.21875 5.515625 54.390625 
Q 5.515625 63.484375 10.046875 68.84375 
Q 14.59375 74.21875 22.3125 74.21875 
" id="DejaVuSans-25"/>
      <path d="M 2.984375 54.6875 
L 12.5 54.6875 
L 29.59375 8.796875 
L 46.6875 54.6875 
L 56.203125 54.6875 
L 35.6875 0 
L 23.484375 0 
z
" id="DejaVuSans-76"/>
     </defs>
     <g transform="translate(299 250.865625)scale(0.2 -0.2)">
      <use xlink:href="#DejaVuSans-31"/>
      <use x="63.623047" xlink:href="#DejaVuSans-30"/>
      <use x="127.246094" xlink:href="#DejaVuSans-25"/>
      <use x="222.265625" xlink:href="#DejaVuSans-20"/>
      <use x="254.052734" xlink:href="#DejaVuSans-72"/>
      <use x="295.134766" xlink:href="#DejaVuSans-65"/>
      <use x="356.658203" xlink:href="#DejaVuSans-6d"/>
      <use x="454.070312" xlink:href="#DejaVuSans-6f"/>
      <use x="515.251953" xlink:href="#DejaVuSans-76"/>
      <use x="574.431641" xlink:href="#DejaVuSans-61"/>
      <use x="635.710938" xlink:href="#DejaVuSans-6c"/>
      <use x="663.494141" xlink:href="#DejaVuSans-20"/>
      <use x="695.28125" xlink:href="#DejaVuSans-6f"/>
      <use x="756.462891" xlink:href="#DejaVuSans-66"/>
      <use x="791.667969" xlink:href="#DejaVuSans-20"/>
      <use x="823.455078" xlink:href="#DejaVuSans-74"/>
      <use x="862.664062" xlink:href="#DejaVuSans-72"/>
      <use x="903.746094" xlink:href="#DejaVuSans-65"/>
      <use x="965.269531" xlink:href="#DejaVuSans-65"/>
      <use x="1026.792969" xlink:href="#DejaVuSans-73"/>
     </g>
    </g>
   </g>
  </g>
 </g>
 <defs>
  <clipPath id="pbab71a2abb">
   <rect height="815.4" width="1395" x="225" y="129.6"/>
  </clipPath>
 </defs>
</svg>
